<svg width="1062" height="210" viewBox="0 0 1062 210" fill="none" xmlns="http://www.w3.org/2000/svg">
<g clip-path="url(#clip0_4150_38126)">
<rect width="1062" height="210" rx="20" fill="#183667"/>
<path d="M777.379 75.4783C686.899 80.5801 580.024 30.013 534.437 2.13147C533.431 1.51633 533.895 0 535.074 0H629.693C629.832 0 629.974 0.0259741 630.104 0.0740929C690.161 22.2647 706.932 43.5148 800.456 37.2826C924.45 29.02 1025.09 68.4926 1061.53 94.7701C1061.84 94.9897 1062 95.3323 1062 95.7079C1062 143.87 1062 188.186 1060.82 197.045C1060.72 197.808 1059.97 198.032 1059.39 197.526C1009.93 154.437 892.551 68.9841 777.379 75.4783Z" fill="#15305B"/>
<path d="M-11 231.3V63C13.5243 146.908 71.8796 191.223 129.229 184.685C287.465 152.928 321.621 205.9 337.919 231.175L338 231.3H55.5301C27.899 231.3 2.37309 232.874 -11 231.3Z" fill="#15305B" stroke="#15305B" stroke-width="1.70833"/>
<path d="M638.952 191.019C662.008 217.33 695.975 212.787 717.831 207.935C718.387 207.812 718.955 208.04 719.276 208.51L719.661 209.071C720.094 209.705 719.932 210.57 719.298 211.004L674.2 241.852C673.987 241.997 673.749 242.081 673.491 242.09C665.551 242.378 643.022 240.671 613.042 231.517C577.251 215.569 535.876 190.338 520.473 127.318C514.193 101.626 472.872 82.4711 474.042 81.9316C475.212 81.3921 519.501 89.7014 543.25 99.6707C562.249 107.646 580.318 121.397 588.513 135.093C598.369 151.565 615.572 164.339 638.952 191.019Z" fill="#15305B"/>
<path d="M520.467 16.861L520.025 10L519.5 16.9624C519.431 17.8917 518.679 18.6234 517.749 18.6688L511.805 18.9587L517.794 19.47C518.704 19.5477 519.421 20.2799 519.48 21.192L520.025 29.6722L520.495 21.1261C520.544 20.243 521.211 19.5182 522.088 19.3977L527.967 18.5893H522.31C521.337 18.5893 520.53 17.833 520.467 16.861Z" fill="white" fill-opacity="0.67"/>
<path d="M719.467 106.861L719.025 100L718.5 106.962C718.431 107.892 717.679 108.623 716.749 108.669L710.805 108.959L716.794 109.47C717.704 109.548 718.421 110.28 718.48 111.192L719.025 119.672L719.495 111.126C719.544 110.243 720.211 109.518 721.088 109.398L726.967 108.589H721.31C720.337 108.589 719.53 107.833 719.467 106.861Z" fill="white" fill-opacity="0.67"/>
<path d="M937.467 1.86104L937.025 -5L936.5 1.96244C936.431 2.89171 935.679 3.62335 934.749 3.66876L928.805 3.9587L934.794 4.46996C935.704 4.5477 936.421 5.27986 936.48 6.19203L937.025 14.6722L937.495 6.12612C937.544 5.24296 938.211 4.5182 939.088 4.39771L944.967 3.58927H939.31C938.337 3.58927 937.53 2.833 937.467 1.86104Z" fill="white" fill-opacity="0.67"/>
<path d="M636.467 62.861L636.025 56L635.5 62.9624C635.431 63.8917 634.679 64.6234 633.749 64.6688L627.805 64.9587L633.794 65.47C634.704 65.5477 635.421 66.2799 635.48 67.192L636.025 75.6722L636.495 67.1261C636.544 66.243 637.211 65.5182 638.088 65.3977L643.967 64.5893H638.31C637.337 64.5893 636.53 63.833 636.467 62.861Z" fill="white" fill-opacity="0.67"/>
<path d="M835.467 152.861L835.025 146L834.5 152.962C834.431 153.892 833.679 154.623 832.749 154.669L826.805 154.959L832.794 155.47C833.704 155.548 834.421 156.28 834.48 157.192L835.025 165.672L835.495 157.126C835.544 156.243 836.211 155.518 837.088 155.398L842.967 154.589H837.31C836.337 154.589 835.53 153.833 835.467 152.861Z" fill="white" fill-opacity="0.67"/>
<path d="M1053.47 47.861L1053.02 41L1052.5 47.9624C1052.43 48.8917 1051.68 49.6234 1050.75 49.6688L1044.8 49.9587L1050.79 50.47C1051.7 50.5477 1052.42 51.2799 1052.48 52.192L1053.02 60.6722L1053.49 52.1261C1053.54 51.243 1054.21 50.5182 1055.09 50.3977L1060.97 49.5893H1055.31C1054.34 49.5893 1053.53 48.833 1053.47 47.861Z" fill="white" fill-opacity="0.67"/>
<path d="M226.467 3.86104L226.025 -3L225.5 3.96244C225.431 4.89171 224.679 5.62335 223.749 5.66876L217.805 5.9587L223.794 6.46996C224.704 6.5477 225.421 7.27986 225.48 8.19203L226.025 16.6722L226.495 8.12612C226.544 7.24296 227.211 6.5182 228.088 6.39771L233.967 5.58927H228.31C227.337 5.58927 226.53 4.833 226.467 3.86104Z" fill="white" fill-opacity="0.67"/>
<path d="M512.662 170.617L512.22 163.756L511.696 170.718C511.626 171.648 510.875 172.379 509.944 172.425L504 172.715L509.989 173.226C510.9 173.304 511.617 174.036 511.675 174.948L512.22 183.428L512.69 174.882C512.739 173.999 513.407 173.274 514.283 173.154L520.163 172.345H514.506C513.532 172.345 512.725 171.589 512.662 170.617Z" fill="white" fill-opacity="0.67"/>
<path d="M929.662 155.617L929.22 148.756L928.696 155.718C928.626 156.648 927.875 157.379 926.944 157.425L921 157.715L926.989 158.226C927.9 158.304 928.617 159.036 928.675 159.948L929.22 168.428L929.69 159.882C929.739 158.999 930.407 158.274 931.283 158.154L937.163 157.345H931.506C930.532 157.345 929.725 156.589 929.662 155.617Z" fill="white" fill-opacity="0.67"/>
<path d="M102.662 111.617L102.22 104.756L101.696 111.718C101.626 112.648 100.875 113.379 99.9438 113.425L94 113.715L99.989 114.226C100.9 114.304 101.617 115.036 101.675 115.948L102.22 124.428L102.69 115.882C102.739 114.999 103.407 114.274 104.283 114.154L110.163 113.345H104.506C103.532 113.345 102.725 112.589 102.662 111.617Z" fill="white" fill-opacity="0.67"/>
<path d="M600.139 148.768L600.256 150.59L600.396 148.741C600.414 148.494 600.614 148.3 600.861 148.287L602.439 148.21L600.849 148.075C600.607 148.054 600.417 147.86 600.401 147.617L600.256 145.365L600.131 147.635C600.118 147.869 599.941 148.062 599.708 148.094L598.147 148.309L599.649 148.309C599.908 148.309 600.122 148.509 600.139 148.768Z" fill="white" fill-opacity="0.67"/>
<path d="M1017.14 133.768L1017.26 135.59L1017.4 133.741C1017.41 133.494 1017.61 133.3 1017.86 133.287L1019.44 133.21L1017.85 133.075C1017.61 133.054 1017.42 132.86 1017.4 132.617L1017.26 130.365L1017.13 132.635C1017.12 132.869 1016.94 133.062 1016.71 133.094L1015.15 133.309L1016.65 133.309C1016.91 133.309 1017.12 133.509 1017.14 133.768Z" fill="white" fill-opacity="0.67"/>
<path d="M190.139 89.7676L190.256 91.5898L190.396 89.7407C190.414 89.4939 190.614 89.2995 190.861 89.2875L192.439 89.2105L190.849 89.0747C190.607 89.054 190.417 88.8596 190.401 88.6173L190.256 86.365L190.131 88.6348C190.118 88.8694 189.941 89.0619 189.708 89.0939L188.147 89.3086L189.649 89.3086C189.908 89.3086 190.122 89.5094 190.139 89.7676Z" fill="white" fill-opacity="0.67"/>
<path d="M572.334 141.012L572.452 142.834L572.591 140.985C572.609 140.738 572.809 140.544 573.056 140.532L574.635 140.455L573.044 140.319C572.802 140.298 572.612 140.104 572.596 139.861L572.452 137.609L572.327 139.879C572.314 140.114 572.136 140.306 571.904 140.338L570.342 140.553L571.844 140.553C572.103 140.553 572.317 140.754 572.334 141.012Z" fill="white" fill-opacity="0.67"/>
<path d="M989.334 126.012L989.452 127.834L989.591 125.985C989.609 125.738 989.809 125.544 990.056 125.532L991.635 125.455L990.044 125.319C989.802 125.298 989.612 125.104 989.596 124.861L989.452 122.609L989.327 124.879C989.314 125.114 989.136 125.306 988.904 125.338L987.342 125.553L988.844 125.553C989.103 125.553 989.317 125.754 989.334 126.012Z" fill="white" fill-opacity="0.67"/>
<path d="M162.334 82.0117L162.452 83.834L162.591 81.9848C162.609 81.738 162.809 81.5437 163.056 81.5316L164.635 81.4546L163.044 81.3188C162.802 81.2982 162.612 81.1037 162.596 80.8615L162.452 78.6092L162.327 80.879C162.314 81.1135 162.136 81.306 161.904 81.338L160.342 81.5527L161.844 81.5527C162.103 81.5527 162.317 81.7536 162.334 82.0117Z" fill="white" fill-opacity="0.67"/>
<path d="M688.334 187.012L688.452 188.834L688.591 186.985C688.609 186.738 688.809 186.544 689.056 186.532L690.635 186.455L689.044 186.319C688.802 186.298 688.612 186.104 688.596 185.861L688.452 183.609L688.327 185.879C688.314 186.114 688.136 186.306 687.904 186.338L686.342 186.553L687.844 186.553C688.103 186.553 688.317 186.754 688.334 187.012Z" fill="white" fill-opacity="0.67"/>
<path d="M278.334 128.012L278.452 129.834L278.591 127.985C278.609 127.738 278.809 127.544 279.056 127.532L280.635 127.455L279.044 127.319C278.802 127.298 278.612 127.104 278.596 126.861L278.452 124.609L278.327 126.879C278.314 127.114 278.136 127.306 277.904 127.338L276.342 127.553L277.844 127.553C278.103 127.553 278.317 127.754 278.334 128.012Z" fill="white" fill-opacity="0.67"/>
<g clip-path="url(#clip1_4150_38126)">
<circle cx="665.404" cy="218.404" r="49.1794" fill="#FEAA6E"/>
<path d="M705.925 193.601C672.577 176.836 642.702 200.642 620.208 201.533C619.609 201.557 619.214 200.941 619.459 200.394L622.075 194.553C622.094 194.512 622.116 194.471 622.141 194.434C649.188 153.605 693.544 169.41 707.02 192.524C707.427 193.222 706.647 193.964 705.925 193.601Z" fill="#C48A65" stroke="#C48A65" stroke-width="0.248077"/>
<path d="M672.018 204.412C678.693 193.142 700.078 195.451 709.686 198.064C709.928 198.129 710.118 198.301 710.216 198.532L711.983 202.689L713.095 206.027C713.272 206.558 712.885 207.107 712.326 207.118C699.444 207.361 674.336 208.594 671.989 205.015C671.87 204.833 671.907 204.599 672.018 204.412Z" fill="#B8825E" stroke="#C38963" stroke-width="0.248077"/>
<path d="M667.473 233.3C659.748 227.224 630.831 221.577 616.644 219.665C616.096 219.591 615.718 219.091 615.788 218.543L616.951 209.531C616.98 209.303 617.244 209.192 617.428 209.33C617.455 209.35 617.484 209.365 617.516 209.375C620.758 210.388 629.033 213.146 641.459 214.884C655.382 218.224 698.955 217.572 713.931 215.977C714.279 215.94 714.609 216.081 714.744 216.404C716.161 219.791 714.3 232.166 710.323 238.599C710.203 238.793 710.019 238.933 709.802 239.003C695.039 243.764 677.284 241.018 667.473 233.3Z" fill="#C38963" stroke="#C38963" stroke-width="0.300291"/>
<circle cx="663.726" cy="225.114" r="35.1281" fill="white" fill-opacity="0.12"/>
</g>
<circle cx="1037.69" cy="26.0312" r="24.3198" transform="rotate(-63.8176 1037.69 26.0312)" fill="#F5D145"/>
<circle cx="1037.69" cy="26.0315" r="19.3311" transform="rotate(-63.8176 1037.69 26.0315)" fill="#FFDF4E"/>
<path d="M1016.29 37.2712C1013.98 39.143 1010.07 43.1227 1012.95 44.0666C1016.47 45.221 1052.07 30.595 1062.06 12.4344C1062.43 11.7702 1062.11 10.9756 1061.35 10.9826C1059.8 10.9968 1057.83 11.6671 1056.98 11.8884" stroke="#826E2C" stroke-width="2.1825"/>
<path d="M1015.28 32.3869C1012.56 34.7556 1006.99 40.9637 1005.37 46.5031C1003.37 53.372 1055.67 46.8583 1068.01 9.54532C1068.19 9.00519 1068.01 8.39465 1067.53 8.09324C1063.08 5.31243 1056.91 7.28212 1054.25 8.70337" stroke="#997C5C" stroke-width="3.11786"/>
</g>
<defs>
<clipPath id="clip0_4150_38126">
<rect width="1062" height="210" rx="20" fill="white"/>
</clipPath>
<clipPath id="clip1_4150_38126">
<rect width="98.3587" height="98.3587" fill="white" transform="translate(616.225 169.225)"/>
</clipPath>
</defs>
</svg>
