<svg width="1441" height="516" viewBox="0 0 1441 516" fill="none" xmlns="http://www.w3.org/2000/svg">
<path d="M0.554688 316.662C106.019 303.878 217.781 314.458 318.555 349.513C393.186 361.585 467.816 373.658 542.446 385.731C579.042 391.65 615.697 397.577 652.647 400.102C699.918 403.33 747.401 400.97 794.7 403.716C826.202 405.544 857.539 409.631 888.845 413.712C912.403 416.785 935.963 419.858 959.521 422.931C1074.2 437.89 1188.88 452.846 1303.56 467.805C1352.26 474.158 1404.16 481.962 1441 516H0.554688V316.662Z" fill="#161C29"/>
<path d="M60.7673 80.8885C61.9005 78.0961 60.2925 74.1497 63.7741 73.697C67.4085 73.2247 67.0112 77.5868 68.3818 79.9093C70.7397 78.657 71.4496 74.7919 74.6844 75.9655C77.6065 77.0283 77.0776 79.8896 77.1552 82.2983C77.2186 84.3059 77.6724 85.2852 79.9786 84.8891C84.5204 84.1116 84.6873 87.775 82.3882 89.4308C74.2425 95.2888 77.536 101.538 80.2042 108.661C83.1052 116.403 82.2048 124.931 82.9289 133.116C83.5989 140.692 83.6318 148.378 87.0053 155.402C87.6235 156.691 88.1666 158.062 89.0012 159.186C91.4837 162.539 94.8454 166.033 98.7384 164.707C102.063 163.573 100.487 158.817 100.323 155.734C98.595 123.337 99.406 90.9513 100.713 58.5783C101.089 49.2488 103.022 40.0668 108.271 32.2479C110.49 28.9412 110.389 26.7909 107.366 24.5766C107.206 24.461 107.067 24.3035 106.943 24.1461C104.994 21.6685 101.367 19.1762 103.351 15.8301C105.485 12.2307 108.52 16.2828 111.381 16.8315C112.275 12.0019 108.302 5.61488 114.513 3.03645C118.704 1.297 119.351 6.78596 121.605 9.17248C124.711 6.69985 122.675 -0.895169 128.608 0.307931C132.678 1.13214 131.009 6.2078 131.89 9.90567C134.711 8.8059 136.601 4.12638 140.269 6.75401C144.209 9.57601 141.301 13.4904 141.209 16.8709C142.57 17.7221 143.574 16.6937 144.658 16.4575C146.099 16.1451 147.5 16.0393 148.391 17.4417C149.453 19.1147 148.701 20.741 147.556 21.917C144.89 24.6603 142.119 27.2953 139.286 29.8491C137.511 31.4483 136.145 32.9491 137.53 35.6062C145.14 50.2157 143.384 65.9864 142.779 81.6488C142.375 92.1642 142.38 102.697 142.086 113.217C141.973 117.274 143.536 117.838 146.736 116.263C157.888 110.772 162.101 100.465 164.534 88.7616C166.819 77.7762 166.8 66.658 167.012 55.5127C167.148 48.3581 168.959 41.7128 174.638 36.829C180.708 31.6107 188.499 32.8851 192.147 40.1234C193.509 42.8248 194.917 45.8978 195.001 48.8428C195.443 64.0722 196.884 79.3755 194.073 94.5089C190.119 115.793 177.168 129.3 158.939 138.007C155.361 139.715 151.724 141.641 147.921 142.397C141.834 143.605 140.979 147.386 141.021 152.991C141.23 181.678 140.217 210.341 138.917 238.994C138.534 247.435 138.886 247.775 146.376 245.051C156.325 241.435 165.848 236.563 168.502 224.855C170.115 217.742 171.563 210.38 171.646 202.886C171.723 196.017 173.348 189.364 176.246 183.26C177.915 179.744 178.106 177.388 174.996 174.819C173.228 173.36 171.001 171.441 172.073 168.609C173.27 165.447 175.964 168.853 177.847 167.642C178.31 164.614 176.279 160.689 179.897 158.719C183.362 156.831 184.3 161.053 186.397 162.475C188.21 160.305 187.34 155.862 190.934 155.791C194.914 155.712 193.356 160.266 194.896 162.463C199.496 159.914 203.074 159.375 202.454 166.756C202.378 167.645 202.639 168.39 203.617 168.523C211.652 169.615 206.711 173.562 204.489 175.235C199.419 179.056 198.829 183.15 199.172 189.729C200.126 208.102 198.025 226.537 190.201 243.268C182.262 260.249 168.773 270.061 150.488 272.696C137.774 274.529 138.877 271.028 138.494 286.466C137.908 309.974 137.02 333.475 136.453 356.984C136.34 361.649 134.422 363.211 130.268 362.948C127.123 362.748 123.961 362.832 120.806 362.835C107.956 362.847 110.37 363.56 109.301 351.512C107.481 330.983 106.421 310.373 105.405 289.778C103.953 260.32 102.874 230.841 101.531 201.378C101.129 192.548 101 192.14 92.4099 191.436C73.5466 189.893 57.368 172.499 55.0219 152.162C53.475 138.75 53.3222 125.43 53.2752 112.029C53.2705 110.794 53.1459 109.436 53.569 108.346C56.1456 101.732 55.7483 96.2016 49.5444 91.7484C47.3416 90.1689 45.9734 87.2141 50.527 86.1979C51.5872 85.9618 52.1279 85.391 52.5064 84.2641C54.9137 77.1144 54.949 77.1292 60.765 80.891L60.7673 80.8885Z" fill="#161C29"/>
<path d="M1281.74 479.566C1276.1 478.83 1270.47 477.76 1264.8 477.435C1259.14 477.11 1257.28 474.37 1257.58 468.672C1258.3 454.741 1258.61 440.789 1259.22 426.853C1260.46 398.963 1262.8 371.156 1265.36 343.374C1265.84 338.2 1263.72 337.344 1259.62 338.562C1254.11 340.203 1248.41 340.612 1242.74 340.882C1231.86 341.404 1226.08 336.043 1226.07 324.819C1226.05 304.081 1230.41 283.899 1234.35 263.741C1238.33 243.35 1242.99 223.094 1249.04 203.229C1251.04 196.645 1253.08 190.111 1259.1 186.093C1264.75 182.321 1269.73 183.876 1272.25 190.367C1273.88 194.554 1273.72 198.879 1272.86 203.212C1267.25 231.476 1263.13 259.979 1260.19 288.674C1259.44 295.981 1259.22 303.301 1260.44 310.571C1260.91 313.329 1261.81 316.271 1265.12 316.254C1268.73 316.235 1268.81 312.925 1269.21 310.263C1271.56 294.667 1273.72 279.037 1276.18 263.461C1283.78 215.381 1291.23 167.272 1299.31 119.281C1301.31 107.429 1303.2 95.3612 1308.11 84.1815C1310.67 78.3357 1314.41 74.943 1320.79 75.5753C1327.24 76.215 1330.91 79.8119 1332.55 86.4991C1334.83 95.804 1334.25 105.207 1333.75 114.5C1330.94 166.575 1327.51 218.614 1324.85 270.696C1322.93 308.182 1319.32 345.508 1316.58 382.912C1315.54 397.071 1314.1 411.166 1312.8 425.289C1312.5 428.514 1310.29 433.287 1316.01 433.892C1320.97 434.416 1325.39 432.775 1326.49 426.91C1327.97 419.005 1327.37 410.937 1327.4 402.941C1327.51 379.15 1327.01 355.349 1328.87 331.597C1329.29 326.263 1330.57 321.19 1333.81 316.901C1337.81 311.594 1342.67 311.646 1345.99 317.448C1347.87 320.72 1349.29 324.528 1349.96 328.283C1356.32 363.97 1359.54 399.923 1356.15 436.188C1354.56 453.115 1348.61 458.289 1332.39 459.305C1327.75 459.595 1323.22 458.978 1318.66 458.385C1312.98 457.645 1309.78 460.347 1309.06 466.489C1308.66 469.899 1308.15 473.297 1307.85 476.714C1307.47 481.017 1305.39 482.749 1301.28 482.149C1294.78 481.199 1288.26 480.407 1281.74 479.558L1281.74 479.566Z" fill="#161C29"/>
<path d="M208.963 305.26C208.462 304.276 211.288 303.085 208.718 302.339C208.787 302.103 208.803 301.83 208.93 301.638C210.478 299.299 210.181 297.586 208.039 296.498C208.707 295.445 210.07 296.466 210.794 295.458C210.319 294.545 208.892 294.574 208.749 293.049C209.889 293.406 210.884 293.615 212.028 292.874C213.716 291.782 214.081 290.859 212.597 289.363C211.502 288.259 211.083 286.778 210.71 285.297C210.413 284.123 211.845 280.917 212.962 280.172C213.028 280.127 213.183 280.15 213.192 280.11C214.292 275.898 215.388 279.687 216.481 280.181C217.44 279.515 216.977 278.553 217.001 277.746C217.036 276.518 216.239 274.599 218.745 275.824C219.441 276.164 219.636 275.544 219.742 275.01C219.96 273.92 220.684 272.837 219.666 271.73C219.17 271.191 218.188 271.093 218.183 269.799C220.896 271.191 221.817 269.169 222.809 267.257C223.054 266.787 223.451 266.308 223.056 265.786C221.263 263.414 222.14 260.339 221.086 257.756C220.574 256.501 220.898 255.098 221.143 253.765C221.517 251.72 222.245 252.193 223.054 253.583C223.809 251.927 223.444 250.062 224.469 248.66C225.598 248.741 225.118 250.079 225.953 250.461C226.973 249.619 226.489 247.88 227.72 246.992C229.194 248.114 229.157 250.19 230.396 251.718C231.407 249.878 231.526 247.919 231.938 246.084C232.377 244.125 233.113 244.433 234.119 245.557C236.005 247.663 236.541 250.367 236.955 253.194C238.248 252.451 237.907 250.687 239.193 250.207C240.164 250.734 239.463 251.944 240.213 252.682C241.543 252.38 241.395 250.658 242.547 249.873C243.332 251.565 242.594 253.391 243.074 255.047C243.864 255.416 244.01 253.989 244.924 254.405C245.328 256.58 245.152 258.846 244.376 260.897C243.737 262.593 244.738 264.755 242.952 266.086C242.858 266.158 243.008 266.756 243.177 267.011C243.436 267.405 243.845 267.565 244.299 267.285C244.868 266.933 245.434 266.581 246.271 266.062C246.551 267.786 241.689 270.539 247.486 270.535C245.97 272.067 245.295 273.325 248.453 273.504C246.706 274.729 246.288 275.987 247.047 277.549C247.343 278.159 247.682 278.624 248.401 278.533C249.127 278.442 249.372 277.906 249.466 277.227C249.703 275.532 249.257 273.46 251.972 273.325C252.503 273.298 252.275 271.484 253.328 270.522C252.938 273.765 256.029 271.174 256.528 272.988C257.372 271.875 258.176 270.719 259.086 269.666C259.523 269.159 260.136 268.591 260.882 269.017C261.502 269.371 261.349 270.114 261.364 270.724C261.387 271.691 261.371 272.66 261.371 273.637C262.059 273.706 262.177 273.052 262.499 272.682C263.315 271.748 263.47 271.13 264.763 272.756C265.647 273.868 265.273 276.341 267.452 276.368C267.506 276.368 267.699 277.096 267.579 277.362C266.512 279.699 267.788 282.9 264.951 284.645C263.834 285.331 264.697 287.752 266.117 288.158C266.566 288.286 267.133 287.821 267.605 288.596C266.834 289.462 264.655 290.153 266.825 291.819C266.895 291.873 266.806 292.358 266.662 292.493C264.154 294.855 266.11 295.635 267.977 296.326C267.767 297.219 267.147 297 266.688 297.084C265.499 297.303 264.645 297.596 266.169 298.74C267.083 299.429 266.705 299.766 265.896 300.211C263.902 301.303 262.701 304.514 263.461 306.667C263.867 307.821 264.587 308.862 262.426 308.047C261.742 307.789 261.112 309.199 261.211 309.801C261.516 311.644 259.49 313.792 262.175 315.241C260.703 315.937 259.643 313.637 258.427 315.332C256.998 317.325 259.598 317.97 259.64 319.879C256.688 316.641 255.98 320.492 255.101 321.547C253.714 323.21 256.533 323.333 257.101 324.691C256.344 325.392 255.597 325.016 254.861 324.6C254.316 324.293 253.704 323.921 253.239 324.551C252.6 325.415 253.415 325.796 253.932 326.224C254.36 326.581 254.689 326.96 254.299 327.801C251.704 325.346 250.745 327.649 249.661 329.578C248.794 331.12 247.51 331.807 245.82 331.792C239.136 331.73 232.455 331.688 225.772 331.627C225.09 331.62 224.208 331.74 223.837 331.123C222.248 328.465 220.734 329.669 219.145 331.406C218.726 329.435 221.643 328.497 220.017 326.46C219.61 325.951 219.638 325.161 218.721 325.274C218.244 325.333 217.682 325.085 217.978 324.571C218.51 323.648 219.097 322.78 217.795 322.192C216.608 321.655 216.763 323.427 215.564 323.7C216.436 321.732 212.945 320.669 214.976 318.413C215.355 317.992 214.765 317.684 214.321 317.574C213.792 317.441 213.432 317.33 213.674 316.516C214.598 313.391 214.332 313.152 211.036 313.964C210.783 312.491 212.325 312.53 212.781 311.654C212.101 310.562 210.759 311.568 209.995 310.687C210.129 309.533 211.38 310.274 211.838 309.452C211.217 308.443 209.819 309.413 209.151 308.372C209.459 307.142 211.972 308.556 211.523 306.182C211.112 304.015 209.567 306.131 208.961 305.27L208.963 305.26Z" fill="#161C29"/>
<path d="M1157.8 390.286C1158.02 387.012 1156.92 384.532 1157.88 381.801C1161.4 383.087 1163.19 386.49 1166.54 389.036C1165.89 385.038 1165.32 381.673 1164.83 378.297C1164.65 377.082 1163.98 375.574 1165.01 374.68C1166.24 373.61 1167.57 374.806 1168.71 375.379C1173.19 377.635 1176.02 381.692 1178.59 386.094C1179.6 384.886 1179.06 383.673 1179.39 382.647C1179.74 381.532 1178.88 379.667 1180.42 379.402C1181.78 379.168 1182.04 381.006 1182.67 382.034C1183.01 382.59 1183.36 383.141 1183.93 384.047C1185.41 381.39 1184.3 378.496 1185.75 375.709C1188.3 378.996 1188.86 382.876 1190.69 385.991C1192.35 385.626 1191.3 383.109 1192.73 383.213C1194.33 383.328 1194.38 385.235 1194.84 386.468C1196.11 389.915 1196.47 393.576 1196.7 397.229C1196.82 399.198 1197.31 400.556 1199.5 400.381C1201.77 400.201 1201.49 398.531 1201.27 396.964C1200.63 392.427 1202.38 388.995 1205.82 386.446C1207.24 385.39 1208.26 384.342 1207.99 382.339C1207.35 377.702 1210.59 375.869 1213.66 373.952C1215.7 372.675 1215.21 375.829 1216.96 375.697C1217.4 375.576 1217.31 374.747 1217.56 374.129C1217.91 373.258 1217.83 371.903 1218.96 371.792C1220.2 371.669 1220.6 373.025 1221.21 373.908L1225.24 377.753C1229.26 378.019 1230.23 380.77 1229.26 384.108C1228.47 386.844 1229.02 388.899 1230.2 391.243C1232.14 395.106 1232.3 399.161 1229.78 402.844C1228.3 405.014 1229.02 406.182 1230.64 407.745C1241.4 418.056 1243.69 430.655 1239.02 444.709C1235.06 456.634 1225.67 463.503 1216.1 469.971C1206.71 476.329 1196.04 478.531 1185.12 479.768C1183.57 479.943 1181.71 479.207 1181.02 482.017C1180.76 483.06 1178.23 480.447 1176.73 482.069C1174.78 478.103 1170.75 477.554 1167.4 475.962C1152.28 468.766 1144.79 452.791 1148.98 435.975C1149.86 432.456 1152.03 429.462 1154.05 426.48C1154.71 425.491 1155.73 424.66 1154.16 423.353C1151.99 421.552 1155.41 421.023 1155.16 419.567C1159.14 421.37 1155.62 417.421 1156.49 417.242C1158.65 416.405 1158.52 420.438 1160.6 418.806C1161.65 417.975 1163.06 417.099 1163.41 415.945C1163.87 414.422 1161.98 414.238 1161.03 413.608C1156.46 410.562 1151.83 403.269 1152.14 396.671C1153.45 396.326 1153.67 398.179 1154.98 398.137C1155.04 397.817 1155.23 397.431 1155.16 397.109C1154.63 394.784 1154.02 392.478 1153.5 390.151C1153.29 389.199 1152.95 387.917 1153.77 387.363C1155.07 386.48 1155.49 388.143 1156.24 388.795C1156.63 389.13 1156.99 389.506 1157.79 390.284L1157.8 390.286Z" fill="#161C29"/>
</svg>
