<svg width="1545" height="1099" viewBox="0 0 1545 1099" fill="none" xmlns="http://www.w3.org/2000/svg">
<g clip-path="url(#clip0_4787_59854)">
<rect width="1544.29" height="1098.16" fill="url(#paint0_linear_4787_59854)"/>
<path d="M366.231 342.639C193.826 321.562 69.0896 112.706 25.8074 5.57507C24.4309 2.16814 21.1733 -0.000488281 17.4988 -0.000488281C12.5721 -0.000488281 8.57812 3.99343 8.57812 8.92019V282.802C8.57812 284.763 9.09101 286.659 10.135 288.319C31.9282 322.975 102.141 411.609 223.063 509.937C389.288 613.962 504.038 663.293 806.461 547.471C929.755 500.252 1230.07 669.728 1229 663.293C1227.92 656.859 1069.2 495.459 961.426 424.679C875.203 368.055 767.854 331.836 688.494 336.74C593.049 342.639 541.68 364.087 366.231 342.639Z" fill="#15305B" stroke="#132E59" stroke-width="16.0863"/>
<ellipse cx="504.037" cy="570.529" rx="50.4039" ry="21.4485" fill="#234174"/>
<path d="M0 1088.63V427.807C0 415.407 19.129 412.446 23.3951 424.088C142.578 749.343 383.48 918.764 620.498 891.72C1160.74 793.504 1445.45 968.896 1532.99 1082.23C1538.18 1088.95 1533.38 1098.16 1524.89 1098.16H294.389C178.35 1098.16 70.7015 1104.44 9.45193 1099.12C4.03483 1098.65 0 1094.06 0 1088.63Z" fill="#15305B" stroke="#15305B" stroke-width="16.0863"/>
<path d="M849.89 189.818C636.999 207.156 386.903 42.044 269.611 -57.8548C262.149 -64.2109 266.737 -76.1426 276.54 -76.1426H487.413C489.172 -76.1426 490.939 -75.6927 492.489 -74.8608C637.465 2.96101 679.013 77.0939 906.192 55.2292C1206.57 26.3195 1450.77 163.252 1541.24 255.833C1543.25 257.883 1544.24 260.516 1544.15 263.382C1540.04 394.581 1534.51 651.528 1544.28 663.829C1425.24 513.154 1133.01 166.761 849.89 189.818Z" fill="#15305B" stroke="#15305B" stroke-width="16.0863"/>
<ellipse cx="1280.47" cy="1005.93" rx="78.2869" ry="33.2451" transform="rotate(16.9019 1280.47 1005.93)" fill="#234174"/>
<ellipse cx="1158.97" cy="930.358" rx="35.1094" ry="14.9095" transform="rotate(10.2961 1158.97 930.358)" fill="#234174"/>
<path d="M994.291 1033.37L993.351 1018.8L992.239 1033.58C992.09 1035.56 990.495 1037.11 988.519 1037.21L975.898 1037.82L988.615 1038.91C990.548 1039.07 992.071 1040.63 992.195 1042.56L993.351 1060.57L994.35 1042.42C994.453 1040.55 995.871 1039.01 997.732 1038.75L1010.22 1037.04H998.205C996.137 1037.04 994.424 1035.43 994.291 1033.37Z" fill="white" stroke="white" stroke-width="1.1766"/>
<path d="M1349.27 699.845L1348.33 685.277L1347.22 700.06C1347.07 702.034 1345.47 703.587 1343.5 703.683L1330.88 704.299L1343.59 705.385C1345.52 705.55 1347.05 707.104 1347.17 709.041L1348.33 727.047L1349.33 708.901C1349.43 707.026 1350.85 705.487 1352.71 705.231L1365.19 703.515H1353.18C1351.11 703.515 1349.4 701.909 1349.27 699.845Z" fill="white" stroke="white" stroke-width="1.1766"/>
<path d="M111.697 543.272L110.758 528.704L109.645 543.487C109.496 545.46 107.901 547.014 105.925 547.11L93.3047 547.726L106.021 548.811C107.955 548.976 109.477 550.531 109.601 552.468L110.758 570.473L111.756 552.328C111.86 550.453 113.278 548.914 115.138 548.658L127.622 546.941H115.611C113.543 546.941 111.831 545.336 111.697 543.272Z" fill="white" stroke="white" stroke-width="1.1766"/>
<path d="M367.055 281.092L365.615 258.785L363.912 281.421C363.684 284.443 361.242 286.821 358.216 286.969L338.891 287.912L358.362 289.574C361.323 289.827 363.654 292.207 363.845 295.173L365.615 322.744L367.145 294.959C367.303 292.087 369.474 289.731 372.323 289.339L391.439 286.711H373.048C369.881 286.711 367.258 284.252 367.055 281.092Z" fill="white" stroke="white" stroke-width="1.80167"/>
<path d="M1491.35 966.803L1490 945.876L1488.4 967.112C1488.19 969.946 1485.9 972.178 1483.06 972.316L1464.93 973.201L1483.2 974.76C1485.97 974.997 1488.16 977.23 1488.34 980.012L1490 1005.88L1491.44 979.811C1491.58 977.118 1493.62 974.907 1496.29 974.54L1514.23 972.074H1496.97C1494 972.074 1491.54 969.767 1491.35 966.803Z" fill="white" stroke="white" stroke-width="1.69016"/>
<path d="M621.262 788.465L619.382 759.329L617.157 788.895C616.86 792.842 613.67 795.948 609.717 796.141L584.477 797.373L609.909 799.544C613.777 799.874 616.821 802.983 617.07 806.856L619.382 842.868L621.38 806.577C621.587 802.826 624.423 799.748 628.144 799.237L653.112 795.804H629.09C624.954 795.804 621.528 792.592 621.262 788.465Z" fill="white" stroke="white" stroke-width="2.3532"/>
<path d="M823.335 584.741L822.418 570.528L821.333 584.951C821.188 586.876 819.632 588.392 817.704 588.486L805.391 589.087L817.797 590.146C819.684 590.307 821.169 591.824 821.29 593.713L822.418 611.28L823.393 593.577C823.494 591.747 824.877 590.246 826.692 589.996L838.872 588.321H827.154C825.136 588.321 823.465 586.755 823.335 584.741Z" fill="white" stroke="white" stroke-width="1.14795"/>
<path d="M400.796 160.062L399.879 145.849L398.794 160.272C398.649 162.197 397.093 163.713 395.165 163.807L382.852 164.408L395.258 165.467C397.145 165.628 398.63 167.144 398.751 169.034L399.879 186.601L400.854 168.898C400.955 167.068 402.338 165.567 404.153 165.317L416.333 163.642H404.615C402.597 163.642 400.926 162.076 400.796 160.062Z" fill="white" stroke="white" stroke-width="1.14795"/>
<path d="M707.515 252.291L706.598 238.078L705.513 252.501C705.368 254.426 703.812 255.941 701.883 256.035L689.57 256.636L701.977 257.695C703.864 257.856 705.349 259.373 705.47 261.263L706.598 278.83L707.573 261.126C707.673 259.297 709.057 257.795 710.872 257.546L723.052 255.871H711.334C709.316 255.871 707.645 254.304 707.515 252.291Z" fill="white" stroke="white" stroke-width="1.14795"/>
<path d="M856.578 38.8781L855.661 24.665L854.575 39.0881C854.43 41.0132 852.874 42.5288 850.946 42.6229L838.633 43.2235L851.039 44.2826C852.926 44.4436 854.411 45.9604 854.533 47.85L855.661 65.4171L856.635 47.7134C856.736 45.8839 858.119 44.3825 859.935 44.1329L872.115 42.4582H860.396C858.379 42.4582 856.708 40.8915 856.578 38.8781Z" fill="white" stroke="white" stroke-width="1.14795"/>
<path d="M1200.1 366.918L1198.01 334.596L1195.54 367.396C1195.21 371.774 1191.68 375.22 1187.29 375.434L1159.29 376.8L1187.5 379.209C1191.79 379.575 1195.17 383.024 1195.45 387.321L1198.01 427.271L1200.23 387.011C1200.46 382.85 1203.6 379.436 1207.73 378.868L1235.43 375.06H1208.78C1204.19 375.06 1200.39 371.497 1200.1 366.918Z" fill="white" stroke="white" stroke-width="2.61058"/>
<path d="M1450.36 37.756L1449.51 24.665L1448.51 37.9495C1448.38 39.7225 1446.95 41.1185 1445.17 41.2051L1433.83 41.7584L1445.26 42.7338C1446.99 42.8822 1448.36 44.2791 1448.47 46.0196L1449.51 62.1998L1450.41 45.8938C1450.5 44.2087 1451.78 42.8259 1453.45 42.596L1464.67 41.0535H1453.87C1452.01 41.0535 1450.48 39.6105 1450.36 37.756Z" fill="white" stroke="white" stroke-width="1.05732"/>
<path d="M1524.36 104.246L1523.51 91.1553L1522.51 104.44C1522.38 106.213 1520.95 107.609 1519.17 107.695L1507.83 108.249L1519.26 109.224C1520.99 109.372 1522.36 110.769 1522.47 112.51L1523.51 128.69L1524.41 112.384C1524.5 110.699 1525.78 109.316 1527.45 109.086L1538.67 107.544H1527.87C1526.01 107.544 1524.48 106.101 1524.36 104.246Z" fill="white" stroke="white" stroke-width="1.05732"/>
<g clip-path="url(#clip1_4787_59854)">
<circle cx="248.799" cy="169.442" r="52.5487" fill="#05B0F1"/>
<path d="M292.096 142.94C256.463 125.026 224.542 150.463 200.505 151.415C199.865 151.44 199.444 150.782 199.706 150.198L202.501 143.957C202.521 143.913 202.545 143.869 202.572 143.829C231.471 100.203 278.866 117.092 293.266 141.789C293.701 142.535 292.867 143.327 292.096 142.94Z" fill="#01A5D3" stroke="#01A5D3" stroke-width="0.265073"/>
<path d="M255.862 154.491C262.994 142.449 285.844 144.916 296.111 147.708C296.369 147.778 296.572 147.962 296.676 148.209L298.564 152.651L299.753 156.217C299.942 156.784 299.529 157.371 298.931 157.382C285.167 157.642 258.338 158.96 255.831 155.135C255.703 154.94 255.743 154.691 255.862 154.491Z" fill="#00A6D3" stroke="#01A5CF" stroke-width="0.265073"/>
<path d="M251.003 185.36C242.749 178.867 211.851 172.833 196.692 170.791C196.106 170.712 195.702 170.177 195.778 169.591L197.02 159.962C197.051 159.719 197.333 159.6 197.529 159.747C197.559 159.769 197.589 159.785 197.624 159.796C201.088 160.878 209.93 163.825 223.207 165.681C238.084 169.25 284.642 168.553 300.644 166.85C301.016 166.81 301.368 166.961 301.513 167.306C303.027 170.925 301.039 184.148 296.789 191.021C296.661 191.228 296.464 191.378 296.232 191.453C280.458 196.54 261.487 193.606 251.003 185.36Z" fill="#01A5CF" stroke="#01A5CF" stroke-width="0.320864"/>
<path d="M237.564 205.443C226.237 202.476 222.464 208.096 219.205 211.973C218.814 212.438 218.116 212.459 217.683 212.035L213.162 207.618C213.162 207.618 208.604 203.348 206.276 200.128C203.916 196.864 201.309 191.619 200.091 189.062C199.756 188.361 200.273 187.565 201.05 187.577C228.733 187.989 253.955 198.589 259.46 204.556C259.879 205.01 259.694 205.688 259.115 205.905C255.85 207.127 248.368 208.273 237.564 205.443Z" fill="#01A5CF" stroke="#01A5CF" stroke-width="0.320864"/>
</g>
<g clip-path="url(#clip2_4787_59854)">
<circle cx="1059.37" cy="884.568" r="60.9481" fill="#9CFBFF"/>
<path d="M1109.59 853.83C1068.26 833.052 1031.24 862.556 1003.36 863.66C1002.62 863.689 1002.13 862.926 1002.44 862.248L1005.68 855.009C1005.7 854.958 1005.73 854.908 1005.76 854.861C1039.28 804.262 1094.25 823.85 1110.95 852.494C1111.45 853.36 1110.49 854.279 1109.59 853.83Z" fill="#74C8CA" stroke="#74C8CA" stroke-width="0.307443"/>
<path d="M1067.57 867.226C1075.84 853.26 1102.34 856.121 1114.25 859.359C1114.55 859.44 1114.79 859.654 1114.91 859.94L1117.1 865.092L1118.48 869.228C1118.7 869.885 1118.22 870.567 1117.52 870.58C1101.56 870.881 1070.44 872.41 1067.53 867.973C1067.39 867.748 1067.43 867.458 1067.57 867.226Z" fill="#74C8CA" stroke="#74C8CA" stroke-width="0.307443"/>
<path d="M1061.94 903.027C1052.36 895.496 1016.53 888.498 998.946 886.129C998.267 886.037 997.798 885.417 997.885 884.737L999.326 873.569C999.363 873.287 999.69 873.149 999.917 873.32C999.951 873.345 999.987 873.364 1000.03 873.377C1004.04 874.632 1014.3 878.05 1029.7 880.203C1046.95 884.342 1100.95 883.534 1119.51 881.558C1119.94 881.512 1120.35 881.687 1120.52 882.088C1122.28 886.285 1119.97 901.621 1115.04 909.593C1114.89 909.834 1114.67 910.007 1114.4 910.094C1096.1 915.994 1074.1 912.591 1061.94 903.027Z" fill="#74C8CA" stroke="#74C8CA" stroke-width="0.372151"/>
<path d="M1046.35 926.321C1033.21 922.88 1028.83 929.397 1025.05 933.895C1024.6 934.434 1023.79 934.459 1023.29 933.967L1018.04 928.843C1018.04 928.843 1012.76 923.89 1010.06 920.156C1007.32 916.37 1004.3 910.287 1002.88 907.322C1002.49 906.508 1003.09 905.585 1003.99 905.599C1036.1 906.077 1065.36 918.371 1071.74 925.292C1072.23 925.819 1072.01 926.605 1071.34 926.856C1067.55 928.274 1058.88 929.603 1046.35 926.321Z" fill="#74C8CA" stroke="#74C8CA" stroke-width="0.372151"/>
</g>
<circle cx="1481.54" cy="398.406" r="150.675" fill="#707386"/>
<circle cx="1482.08" cy="398.942" r="113.677" fill="#76798C"/>
<circle cx="1408.63" cy="328.698" r="11.2604" fill="#A9ACBF"/>
<circle cx="1396.82" cy="431.65" r="19.8398" fill="#A9ACBF"/>
<circle cx="1501.92" cy="494.924" r="11.2604" fill="#A9ACBF"/>
<circle cx="1489.59" cy="411.811" r="5.36211" fill="#A9ACBF"/>
<circle cx="1456.35" cy="465.431" r="5.36211" fill="#A9ACBF"/>
<circle cx="1467.07" cy="511.546" r="5.36211" fill="#A9ACBF"/>
<circle cx="1376.99" cy="470.794" r="5.36211" fill="#A9ACBF"/>
<circle cx="1376.99" cy="345.321" r="5.36211" fill="#A9ACBF"/>
<circle cx="1489.59" cy="329.235" r="5.36211" fill="#A9ACBF"/>
<circle cx="1533.56" cy="271.323" r="5.36211" fill="#A9ACBF"/>
<circle cx="1518.01" cy="372.667" r="15.5501" fill="#A9ACBF"/>
<circle cx="1091.79" cy="145.85" r="83.649" fill="#F5D145"/>
<circle cx="1091.79" cy="145.851" r="66.4902" fill="#FFDF4E"/>
<path d="M1024.61 96.8523C1015.32 92.5543 997.113 86.5371 998.566 96.8523C1000.34 109.467 1099.52 197.157 1170.74 200.449C1173.35 200.569 1175.32 198.381 1174.15 196.052C1171.75 191.295 1166.68 186.21 1164.71 183.921" stroke="#826E2C" stroke-width="7.50696"/>
<path d="M1038.16 86.3323C1026.72 81.524 999.101 73.7504 979.55 77.1697C955.307 81.4096 1054.78 232.948 1188.69 214.42C1190.63 214.152 1192.24 212.68 1192.44 210.733C1194.27 192.772 1178.83 176.717 1170.4 170.664" stroke="#997C5C" stroke-width="10.7242"/>
<g clip-path="url(#clip3_4787_59854)">
<circle cx="195.718" cy="951.777" r="251.483" fill="#9B4100"/>
<path d="M402.929 824.945C232.401 739.214 79.6334 860.951 -35.3962 865.506C-38.4591 865.627 -40.4754 862.477 -39.2223 859.679L-25.8444 829.813C-25.7504 829.603 -25.6348 829.394 -25.5078 829.202C112.798 620.419 339.617 701.243 408.528 819.436C410.61 823.006 406.621 826.801 402.929 824.945Z" fill="#C48A65" stroke="#C48A65" stroke-width="1.26857"/>
<path d="M229.544 880.223C263.674 822.596 373.029 834.402 422.164 847.762C423.401 848.099 424.369 848.978 424.87 850.158L433.905 871.417L439.594 888.483C440.499 891.196 438.522 894.007 435.662 894.061C369.79 895.303 241.394 901.611 229.394 883.306C228.784 882.375 228.977 881.181 229.544 880.223Z" fill="#B8825E" stroke="#C38963" stroke-width="1.26857"/>
<path d="M206.302 1027.95C166.799 996.874 18.9284 967.997 -53.6173 958.223C-56.4197 957.845 -58.355 955.286 -57.9931 952.481L-52.0471 906.4C-51.897 905.236 -50.548 904.667 -49.6096 905.37C-49.4699 905.475 -49.3234 905.552 -49.1567 905.604C-32.578 910.783 9.73578 924.886 73.2767 933.772C144.473 950.852 367.288 947.516 443.867 939.363C445.647 939.174 447.334 939.896 448.025 941.547C455.273 958.865 445.758 1022.15 425.417 1055.04C424.804 1056.03 423.862 1056.75 422.753 1057.11C347.263 1081.45 256.472 1067.41 206.302 1027.95Z" fill="#C38963" stroke="#C38963" stroke-width="1.53556"/>
<path d="M141.96 1124.06C87.7504 1109.86 69.6942 1136.75 54.098 1155.31C52.2299 1157.53 48.8901 1157.64 46.8135 1155.61L25.1794 1134.46C25.1794 1134.46 3.36762 1114.03 -7.7736 1098.62C-19.0688 1083 -31.5446 1057.9 -37.3764 1045.66C-38.9764 1042.31 -36.5032 1038.5 -32.7851 1038.56C99.6988 1040.53 220.401 1091.26 246.749 1119.81C248.754 1121.99 247.867 1125.23 245.098 1126.27C229.471 1132.12 193.665 1137.6 141.96 1124.06Z" fill="#C38963" stroke="#C38963" stroke-width="1.53556"/>
<circle cx="187.146" cy="986.094" r="179.631" fill="white" fill-opacity="0.12"/>
</g>
</g>
<defs>
<linearGradient id="paint0_linear_4787_59854" x1="43.4332" y1="1098.16" x2="2046.18" y2="-370.522" gradientUnits="userSpaceOnUse">
<stop stop-color="#102F5D"/>
<stop offset="1" stop-color="#335088"/>
</linearGradient>
<clipPath id="clip0_4787_59854">
<rect width="1544.29" height="1098.16" fill="white"/>
</clipPath>
<clipPath id="clip1_4787_59854">
<rect width="105.097" height="105.097" fill="white" transform="translate(196.25 116.893)"/>
</clipPath>
<clipPath id="clip2_4787_59854">
<rect width="121.896" height="121.896" fill="white" transform="translate(998.422 823.621)"/>
</clipPath>
<clipPath id="clip3_4787_59854">
<rect width="502.966" height="502.966" fill="white" transform="translate(-55.7656 700.292)"/>
</clipPath>
</defs>
</svg>
