<svg width="50" height="50" viewBox="0 0 50 50" fill="none" xmlns="http://www.w3.org/2000/svg">
<path d="M23.2978 12.0819C23.6698 9.89198 26.8158 9.89197 27.1879 12.0819C27.4631 13.7023 29.4829 14.2954 30.5905 13.081C32.0874 11.4398 34.734 13.1407 33.8629 15.1841C33.2185 16.6961 34.597 18.287 36.1853 17.8642C38.3319 17.2929 39.6388 20.1546 37.8012 21.4027C36.4416 22.3262 36.7412 24.4098 38.3059 24.9129C40.4206 25.5927 39.9729 28.7067 37.7523 28.7633C36.1093 28.8051 35.2348 30.7199 36.2791 31.9891C37.6906 33.7043 35.6304 36.0819 33.7317 34.9289C32.3269 34.0759 30.556 35.2139 30.7484 36.8462C31.0085 39.0523 27.9899 39.9386 27.016 37.9421C26.2954 36.465 24.1903 36.465 23.4697 37.9421C22.4958 39.9386 19.4772 39.0523 19.7373 36.8462C19.9297 35.2139 18.1588 34.0759 16.754 34.9289C14.8553 36.0819 12.7951 33.7043 14.2066 31.9891C15.2509 30.7199 14.3764 28.8051 12.7334 28.7633C10.5128 28.7067 10.0651 25.5927 12.1798 24.9129C13.7445 24.4098 14.0441 22.3262 12.6845 21.4027C10.8469 20.1546 12.1538 17.2929 14.3004 17.8642C15.8887 18.287 17.2672 16.6961 16.6227 15.1841C15.7517 13.1407 18.3983 11.4398 19.8952 13.081C21.0028 14.2954 23.0226 13.7023 23.2978 12.0819Z" fill="#02B56B"/>
<path d="M25.6094 24.8594H22.7109L22.6953 23.4297H25.2266C25.6536 23.4297 26.0156 23.3672 26.3125 23.2422C26.6146 23.112 26.8438 22.9271 27 22.6875C27.1562 22.4427 27.2344 22.1484 27.2344 21.8047C27.2344 21.4245 27.1615 21.1146 27.0156 20.875C26.8698 20.6354 26.6458 20.4609 26.3438 20.3516C26.0469 20.2422 25.6667 20.1875 25.2031 20.1875H23.3047V30H21.3438V18.625H25.2031C25.8281 18.625 26.3854 18.6849 26.875 18.8047C27.3698 18.9245 27.7891 19.112 28.1328 19.3672C28.4818 19.6172 28.7448 19.9349 28.9219 20.3203C29.1042 20.7057 29.1953 21.1641 29.1953 21.6953C29.1953 22.1641 29.0833 22.5938 28.8594 22.9844C28.6354 23.3698 28.3047 23.6849 27.8672 23.9297C27.4297 24.1745 26.8854 24.3203 26.2344 24.3672L25.6094 24.8594ZM25.5234 30H22.0938L22.9766 28.4453H25.5234C25.9661 28.4453 26.3359 28.3724 26.6328 28.2266C26.9297 28.0755 27.151 27.8698 27.2969 27.6094C27.4479 27.3438 27.5234 27.0339 27.5234 26.6797C27.5234 26.3099 27.4583 25.9896 27.3281 25.7188C27.1979 25.4427 26.9922 25.2318 26.7109 25.0859C26.4297 24.9349 26.0625 24.8594 25.6094 24.8594H23.4062L23.4219 23.4297H26.2891L26.7344 23.9688C27.3594 23.9896 27.8724 24.1276 28.2734 24.3828C28.6797 24.638 28.9818 24.9688 29.1797 25.375C29.3776 25.7812 29.4766 26.2188 29.4766 26.6875C29.4766 27.4115 29.3177 28.0182 29 28.5078C28.6875 28.9974 28.237 29.3698 27.6484 29.625C27.0599 29.875 26.3516 30 25.5234 30Z" fill="white"/>
</svg>
