<svg width="50" height="50" viewBox="0 0 50 50" fill="none" xmlns="http://www.w3.org/2000/svg">
<path d="M23.2978 12.0819C23.6698 9.89198 26.8158 9.89197 27.1879 12.0819C27.4631 13.7023 29.4829 14.2954 30.5905 13.081C32.0874 11.4398 34.734 13.1407 33.8629 15.1841C33.2185 16.6961 34.597 18.287 36.1853 17.8642C38.3319 17.2929 39.6388 20.1546 37.8012 21.4027C36.4416 22.3262 36.7412 24.4098 38.3059 24.9129C40.4206 25.5927 39.9729 28.7067 37.7523 28.7633C36.1093 28.8051 35.2348 30.7199 36.2791 31.9891C37.6906 33.7043 35.6304 36.0819 33.7317 34.9289C32.3269 34.0759 30.556 35.2139 30.7484 36.8462C31.0085 39.0523 27.9899 39.9386 27.016 37.9421C26.2954 36.465 24.1903 36.465 23.4697 37.9421C22.4958 39.9386 19.4772 39.0523 19.7373 36.8462C19.9297 35.2139 18.1588 34.0759 16.754 34.9289C14.8553 36.0819 12.7951 33.7043 14.2066 31.9891C15.2509 30.7199 14.3764 28.8051 12.7334 28.7633C10.5128 28.7067 10.0651 25.5927 12.1798 24.9129C13.7445 24.4098 14.0441 22.3262 12.6845 21.4027C10.8469 20.1546 12.1538 17.2929 14.3004 17.8642C15.8887 18.287 17.2672 16.6961 16.6227 15.1841C15.7517 13.1407 18.3983 11.4398 19.8952 13.081C21.0028 14.2954 23.0226 13.7023 23.2978 12.0819Z" fill="#02B56B"/>
<path d="M27.8906 26.2969H29.8438C29.7812 27.0417 29.5729 27.7057 29.2188 28.2891C28.8646 28.8672 28.3672 29.3229 27.7266 29.6562C27.0859 29.9896 26.3073 30.1562 25.3906 30.1562C24.6875 30.1562 24.0547 30.0312 23.4922 29.7812C22.9297 29.526 22.4479 29.1667 22.0469 28.7031C21.6458 28.2344 21.3385 27.6693 21.125 27.0078C20.9167 26.3464 20.8125 25.6068 20.8125 24.7891V23.8438C20.8125 23.026 20.9193 22.2865 21.1328 21.625C21.3516 20.9635 21.6641 20.3984 22.0703 19.9297C22.4766 19.4557 22.9635 19.0938 23.5312 18.8438C24.1042 18.5938 24.7474 18.4688 25.4609 18.4688C26.3672 18.4688 27.1328 18.6354 27.7578 18.9688C28.3828 19.3021 28.8672 19.763 29.2109 20.3516C29.5599 20.9401 29.7734 21.6146 29.8516 22.375H27.8984C27.8464 21.8854 27.7318 21.4661 27.5547 21.1172C27.3828 20.7682 27.1276 20.5026 26.7891 20.3203C26.4505 20.1328 26.0078 20.0391 25.4609 20.0391C25.013 20.0391 24.6224 20.1224 24.2891 20.2891C23.9557 20.4557 23.6771 20.7005 23.4531 21.0234C23.2292 21.3464 23.0599 21.7448 22.9453 22.2188C22.8359 22.6875 22.7812 23.224 22.7812 23.8281V24.7891C22.7812 25.362 22.8307 25.8828 22.9297 26.3516C23.0339 26.8151 23.1901 27.2135 23.3984 27.5469C23.612 27.8802 23.8828 28.138 24.2109 28.3203C24.5391 28.5026 24.9323 28.5938 25.3906 28.5938C25.9479 28.5938 26.3984 28.5052 26.7422 28.3281C27.0911 28.151 27.3542 27.8932 27.5312 27.5547C27.7135 27.2109 27.8333 26.7917 27.8906 26.2969Z" fill="white"/>
</svg>
