<svg width="50" height="50" viewBox="0 0 50 50" fill="none" xmlns="http://www.w3.org/2000/svg">
<path d="M23.2978 12.0819C23.6698 9.89198 26.8158 9.89197 27.1879 12.0819C27.4631 13.7023 29.4829 14.2954 30.5905 13.081C32.0874 11.4398 34.734 13.1407 33.8629 15.1841C33.2185 16.6961 34.597 18.287 36.1853 17.8642C38.3319 17.2929 39.6388 20.1546 37.8012 21.4027C36.4416 22.3262 36.7412 24.4098 38.3059 24.9129C40.4206 25.5927 39.9729 28.7067 37.7523 28.7633C36.1093 28.8051 35.2348 30.7199 36.2791 31.9891C37.6906 33.7043 35.6304 36.0819 33.7317 34.9289C32.3269 34.0759 30.556 35.2139 30.7484 36.8462C31.0085 39.0523 27.9899 39.9386 27.016 37.9421C26.2954 36.465 24.1903 36.465 23.4697 37.9421C22.4958 39.9386 19.4772 39.0523 19.7373 36.8462C19.9297 35.2139 18.1588 34.0759 16.754 34.9289C14.8553 36.0819 12.7951 33.7043 14.2066 31.9891C15.2509 30.7199 14.3764 28.8051 12.7334 28.7633C10.5128 28.7067 10.0651 25.5927 12.1798 24.9129C13.7445 24.4098 14.0441 22.3262 12.6845 21.4027C10.8469 20.1546 12.1538 17.2929 14.3004 17.8642C15.8887 18.287 17.2672 16.6961 16.6227 15.1841C15.7517 13.1407 18.3983 11.4398 19.8952 13.081C21.0028 14.2954 23.0226 13.7023 23.2978 12.0819Z" fill="#02B56B"/>
<path d="M24.4766 30H22.0469L22.0625 28.4453H24.4766C25.1797 28.4453 25.7682 28.2917 26.2422 27.9844C26.7214 27.6771 27.0807 27.237 27.3203 26.6641C27.5651 26.0911 27.6875 25.4089 27.6875 24.6172V24C27.6875 23.3854 27.6172 22.8411 27.4766 22.3672C27.3411 21.8932 27.138 21.4948 26.8672 21.1719C26.6016 20.849 26.2734 20.6042 25.8828 20.4375C25.4974 20.2708 25.0521 20.1875 24.5469 20.1875H22V18.625H24.5469C25.3021 18.625 25.9922 18.7526 26.6172 19.0078C27.2422 19.2578 27.7812 19.6198 28.2344 20.0938C28.6927 20.5677 29.0443 21.1354 29.2891 21.7969C29.5339 22.4583 29.6562 23.1979 29.6562 24.0156V24.6172C29.6562 25.4349 29.5339 26.1745 29.2891 26.8359C29.0443 27.4974 28.6927 28.0651 28.2344 28.5391C27.776 29.0078 27.2292 29.3698 26.5938 29.625C25.9635 29.875 25.2578 30 24.4766 30ZM23.1328 18.625V30H21.1719V18.625H23.1328Z" fill="white"/>
</svg>
