<svg width="49" height="50" viewBox="0 0 49 50" fill="none" xmlns="http://www.w3.org/2000/svg">
<path d="M22.626 12.0819C22.998 9.89198 26.144 9.89197 26.516 12.0819C26.7912 13.7023 28.811 14.2954 29.9186 13.081C31.4155 11.4398 34.0621 13.1407 33.1911 15.1841C32.5466 16.6961 33.9251 18.287 35.5134 17.8642C37.66 17.2929 38.9669 20.1546 37.1294 21.4027C35.7698 22.3262 36.0693 24.4098 37.634 24.9129C39.7488 25.5927 39.301 28.7067 37.0804 28.7633C35.4374 28.8051 34.5629 30.7199 35.6073 31.9891C37.0187 33.7043 34.9585 36.0819 33.0599 34.9289C31.655 34.0759 29.8841 35.2139 30.0765 36.8462C30.3366 39.0523 27.318 39.9386 26.3441 37.9421C25.6235 36.465 23.5184 36.465 22.7978 37.9421C21.8239 39.9386 18.8054 39.0523 19.0654 36.8462C19.2578 35.2139 17.4869 34.0759 16.0821 34.9289C14.1834 36.0819 12.1232 33.7043 13.5347 31.9891C14.579 30.7199 13.7046 28.8051 12.0615 28.7633C9.8409 28.7067 9.39318 25.5927 11.5079 24.9129C13.0726 24.4098 13.3722 22.3262 12.0126 21.4027C10.1751 20.1546 11.482 17.2929 13.6286 17.8642C15.2168 18.287 16.5954 16.6961 15.9509 15.1841C15.0798 13.1407 17.7264 11.4398 19.2234 13.081C20.3309 14.2954 22.3507 13.7023 22.626 12.0819Z" fill="#02B56B"/>
<path d="M24.8516 20.1406L21.4531 30H19.3984L23.6797 18.625H24.9922L24.8516 20.1406ZM27.6953 30L24.2891 20.1406L24.1406 18.625H25.4609L29.7578 30H27.6953ZM27.5312 25.7812V27.3359H21.3438V25.7812H27.5312Z" fill="white"/>
</svg>
