<svg width="91" height="40" viewBox="0 0 91 40" fill="none" xmlns="http://www.w3.org/2000/svg">
<rect width="91" height="40" rx="20" fill="#A9DECA" fill-opacity="0.5"/>
<circle cx="15" cy="20" r="3" fill="#02B56B"/>
<path d="M34.1875 21.3828H35.6875C35.6094 22.1016 35.4036 22.7448 35.0703 23.3125C34.737 23.8802 34.2656 24.3307 33.6562 24.6641C33.0469 24.9922 32.2865 25.1562 31.375 25.1562C30.7083 25.1562 30.1016 25.0312 29.5547 24.7812C29.013 24.5312 28.5469 24.1771 28.1562 23.7188C27.7656 23.2552 27.4635 22.7005 27.25 22.0547C27.0417 21.4036 26.9375 20.6797 26.9375 19.8828V18.75C26.9375 17.9531 27.0417 17.2318 27.25 16.5859C27.4635 15.9349 27.7682 15.3776 28.1641 14.9141C28.5651 14.4505 29.0469 14.0938 29.6094 13.8438C30.1719 13.5938 30.8047 13.4688 31.5078 13.4688C32.3672 13.4688 33.0938 13.6302 33.6875 13.9531C34.2812 14.276 34.7422 14.724 35.0703 15.2969C35.4036 15.8646 35.6094 16.5234 35.6875 17.2734H34.1875C34.1146 16.7422 33.9792 16.2865 33.7812 15.9062C33.5833 15.5208 33.3021 15.224 32.9375 15.0156C32.5729 14.8073 32.0964 14.7031 31.5078 14.7031C31.0026 14.7031 30.5573 14.7995 30.1719 14.9922C29.7917 15.1849 29.4714 15.4583 29.2109 15.8125C28.9557 16.1667 28.763 16.5911 28.6328 17.0859C28.5026 17.5807 28.4375 18.1302 28.4375 18.7344V19.8828C28.4375 20.4401 28.4948 20.9635 28.6094 21.4531C28.7292 21.9427 28.9089 22.3724 29.1484 22.7422C29.388 23.112 29.6927 23.4036 30.0625 23.6172C30.4323 23.8255 30.8698 23.9297 31.375 23.9297C32.0156 23.9297 32.526 23.8281 32.9062 23.625C33.2865 23.4219 33.5729 23.1302 33.7656 22.75C33.9635 22.3698 34.1042 21.9141 34.1875 21.3828ZM37.1406 20.8672V20.6875C37.1406 20.0781 37.2292 19.513 37.4062 18.9922C37.5833 18.4661 37.8385 18.0104 38.1719 17.625C38.5052 17.2344 38.9089 16.9323 39.3828 16.7188C39.8568 16.5 40.388 16.3906 40.9766 16.3906C41.5703 16.3906 42.1042 16.5 42.5781 16.7188C43.0573 16.9323 43.4635 17.2344 43.7969 17.625C44.1354 18.0104 44.3932 18.4661 44.5703 18.9922C44.7474 19.513 44.8359 20.0781 44.8359 20.6875V20.8672C44.8359 21.4766 44.7474 22.0417 44.5703 22.5625C44.3932 23.0833 44.1354 23.5391 43.7969 23.9297C43.4635 24.3151 43.0599 24.6172 42.5859 24.8359C42.1172 25.0495 41.5859 25.1562 40.9922 25.1562C40.3984 25.1562 39.8646 25.0495 39.3906 24.8359C38.9167 24.6172 38.5104 24.3151 38.1719 23.9297C37.8385 23.5391 37.5833 23.0833 37.4062 22.5625C37.2292 22.0417 37.1406 21.4766 37.1406 20.8672ZM38.5859 20.6875V20.8672C38.5859 21.2891 38.6354 21.6875 38.7344 22.0625C38.8333 22.4323 38.9818 22.7604 39.1797 23.0469C39.3828 23.3333 39.6354 23.5599 39.9375 23.7266C40.2396 23.888 40.5911 23.9688 40.9922 23.9688C41.388 23.9688 41.7344 23.888 42.0312 23.7266C42.3333 23.5599 42.5833 23.3333 42.7812 23.0469C42.9792 22.7604 43.1276 22.4323 43.2266 22.0625C43.3307 21.6875 43.3828 21.2891 43.3828 20.8672V20.6875C43.3828 20.2708 43.3307 19.8776 43.2266 19.5078C43.1276 19.1328 42.9766 18.8021 42.7734 18.5156C42.5755 18.224 42.3255 17.9948 42.0234 17.8281C41.7266 17.6615 41.3776 17.5781 40.9766 17.5781C40.5807 17.5781 40.2318 17.6615 39.9297 17.8281C39.6328 17.9948 39.3828 18.224 39.1797 18.5156C38.9818 18.8021 38.8333 19.1328 38.7344 19.5078C38.6354 19.8776 38.5859 20.2708 38.5859 20.6875ZM48.0938 17.875V25H46.6484V16.5469H48.0547L48.0938 17.875ZM50.7344 16.5L50.7266 17.8438C50.6068 17.8177 50.4922 17.8021 50.3828 17.7969C50.2786 17.7865 50.1589 17.7812 50.0234 17.7812C49.6901 17.7812 49.3958 17.8333 49.1406 17.9375C48.8854 18.0417 48.6693 18.1875 48.4922 18.375C48.3151 18.5625 48.1745 18.7865 48.0703 19.0469C47.9714 19.3021 47.9062 19.5833 47.875 19.8906L47.4688 20.125C47.4688 19.6146 47.5182 19.1354 47.6172 18.6875C47.7214 18.2396 47.8802 17.8438 48.0938 17.5C48.3073 17.151 48.5781 16.8802 48.9062 16.6875C49.2396 16.4896 49.6354 16.3906 50.0938 16.3906C50.1979 16.3906 50.3177 16.4036 50.4531 16.4297C50.5885 16.4505 50.6823 16.474 50.7344 16.5ZM53.5156 17.875V25H52.0703V16.5469H53.4766L53.5156 17.875ZM56.1562 16.5L56.1484 17.8438C56.0286 17.8177 55.9141 17.8021 55.8047 17.7969C55.7005 17.7865 55.5807 17.7812 55.4453 17.7812C55.112 17.7812 54.8177 17.8333 54.5625 17.9375C54.3073 18.0417 54.0911 18.1875 53.9141 18.375C53.737 18.5625 53.5964 18.7865 53.4922 19.0469C53.3932 19.3021 53.3281 19.5833 53.2969 19.8906L52.8906 20.125C52.8906 19.6146 52.9401 19.1354 53.0391 18.6875C53.1432 18.2396 53.3021 17.8438 53.5156 17.5C53.7292 17.151 54 16.8802 54.3281 16.6875C54.6615 16.4896 55.0573 16.3906 55.5156 16.3906C55.6198 16.3906 55.7396 16.4036 55.875 16.4297C56.0104 16.4505 56.1042 16.474 56.1562 16.5ZM60.8438 25.1562C60.2552 25.1562 59.7214 25.0573 59.2422 24.8594C58.7682 24.6562 58.3594 24.3724 58.0156 24.0078C57.6771 23.6432 57.4167 23.2109 57.2344 22.7109C57.0521 22.2109 56.9609 21.6641 56.9609 21.0703V20.7422C56.9609 20.0547 57.0625 19.4427 57.2656 18.9062C57.4688 18.3646 57.7448 17.9062 58.0938 17.5312C58.4427 17.1562 58.8385 16.8724 59.2812 16.6797C59.724 16.487 60.1823 16.3906 60.6562 16.3906C61.2604 16.3906 61.7812 16.4948 62.2188 16.7031C62.6615 16.9115 63.0234 17.2031 63.3047 17.5781C63.5859 17.9479 63.7943 18.3854 63.9297 18.8906C64.0651 19.3906 64.1328 19.9375 64.1328 20.5312V21.1797H57.8203V20H62.6875V19.8906C62.6667 19.5156 62.5885 19.151 62.4531 18.7969C62.3229 18.4427 62.1146 18.151 61.8281 17.9219C61.5417 17.6927 61.151 17.5781 60.6562 17.5781C60.3281 17.5781 60.026 17.6484 59.75 17.7891C59.474 17.9245 59.237 18.1276 59.0391 18.3984C58.8411 18.6693 58.6875 19 58.5781 19.3906C58.4688 19.7812 58.4141 20.2318 58.4141 20.7422V21.0703C58.4141 21.4714 58.4688 21.849 58.5781 22.2031C58.6927 22.5521 58.8568 22.8594 59.0703 23.125C59.2891 23.3906 59.5521 23.599 59.8594 23.75C60.1719 23.901 60.526 23.9766 60.9219 23.9766C61.4323 23.9766 61.8646 23.8724 62.2188 23.6641C62.5729 23.4557 62.8828 23.1771 63.1484 22.8281L64.0234 23.5234C63.8411 23.7995 63.6094 24.0625 63.3281 24.3125C63.0469 24.5625 62.7005 24.7656 62.2891 24.9219C61.8828 25.0781 61.401 25.1562 60.8438 25.1562ZM69.2031 23.9688C69.5469 23.9688 69.8646 23.8984 70.1562 23.7578C70.4479 23.6172 70.6875 23.4245 70.875 23.1797C71.0625 22.9297 71.1693 22.6458 71.1953 22.3281H72.5703C72.5443 22.8281 72.375 23.2943 72.0625 23.7266C71.7552 24.1536 71.3516 24.5 70.8516 24.7656C70.3516 25.026 69.8021 25.1562 69.2031 25.1562C68.5677 25.1562 68.013 25.0443 67.5391 24.8203C67.0703 24.5964 66.6797 24.2891 66.3672 23.8984C66.0599 23.5078 65.8281 23.0599 65.6719 22.5547C65.5208 22.0443 65.4453 21.5052 65.4453 20.9375V20.6094C65.4453 20.0417 65.5208 19.5052 65.6719 19C65.8281 18.4896 66.0599 18.0391 66.3672 17.6484C66.6797 17.2578 67.0703 16.9505 67.5391 16.7266C68.013 16.5026 68.5677 16.3906 69.2031 16.3906C69.8646 16.3906 70.4427 16.526 70.9375 16.7969C71.4323 17.0625 71.8203 17.4271 72.1016 17.8906C72.388 18.349 72.5443 18.8698 72.5703 19.4531H71.1953C71.1693 19.1042 71.0703 18.7891 70.8984 18.5078C70.7318 18.2266 70.5026 18.0026 70.2109 17.8359C69.9245 17.6641 69.5885 17.5781 69.2031 17.5781C68.7604 17.5781 68.388 17.6667 68.0859 17.8438C67.7891 18.0156 67.5521 18.25 67.375 18.5469C67.2031 18.8385 67.0781 19.1641 67 19.5234C66.9271 19.8776 66.8906 20.2396 66.8906 20.6094V20.9375C66.8906 21.3073 66.9271 21.6719 67 22.0312C67.0729 22.3906 67.1953 22.7161 67.3672 23.0078C67.5443 23.2995 67.7812 23.5339 68.0781 23.7109C68.3802 23.8828 68.7552 23.9688 69.2031 23.9688ZM77.7344 16.5469V17.6562H73.1641V16.5469H77.7344ZM74.7109 14.4922H76.1562V22.9062C76.1562 23.1927 76.2005 23.4089 76.2891 23.5547C76.3776 23.7005 76.4922 23.7969 76.6328 23.8438C76.7734 23.8906 76.9245 23.9141 77.0859 23.9141C77.2057 23.9141 77.3307 23.9036 77.4609 23.8828C77.5964 23.8568 77.6979 23.8359 77.7656 23.8203L77.7734 25C77.6589 25.0365 77.5078 25.0703 77.3203 25.1016C77.138 25.138 76.9167 25.1562 76.6562 25.1562C76.3021 25.1562 75.9766 25.0859 75.6797 24.9453C75.3828 24.8047 75.1458 24.5703 74.9688 24.2422C74.7969 23.9089 74.7109 23.4609 74.7109 22.8984V14.4922Z" fill="#02B56B"/>
</svg>
