<svg width="430" height="430" viewBox="0 0 430 430" fill="none" xmlns="http://www.w3.org/2000/svg">
<path d="M260.9 61.8458C264.394 58.6383 270.053 60.5616 270.868 65.2339L290.109 175.453C290.306 176.583 290.824 177.633 291.6 178.478L367.264 260.9C370.471 264.394 368.548 270.053 363.876 270.868L253.657 290.109C252.527 290.307 251.477 290.824 250.631 291.6L168.21 367.264C164.716 370.471 159.057 368.548 158.241 363.876L139 253.657C138.803 252.527 138.286 251.477 137.51 250.631L61.8457 168.21C58.6382 164.716 60.5615 159.057 65.2338 158.241L175.453 139C176.583 138.803 177.633 138.286 178.478 137.51L260.9 61.8458Z" fill="#F9F9F9"/>
<path d="M260.9 61.8458C264.394 58.6383 270.053 60.5616 270.868 65.2339L290.109 175.453C290.306 176.583 290.824 177.633 291.6 178.478L367.264 260.9C370.471 264.394 368.548 270.053 363.876 270.868L253.657 290.109C252.527 290.307 251.477 290.824 250.631 291.6L168.21 367.264C164.716 370.471 159.057 368.548 158.241 363.876L139 253.657C138.803 252.527 138.286 251.477 137.51 250.631L61.8457 168.21C58.6382 164.716 60.5615 159.057 65.2338 158.241L175.453 139C176.583 138.803 177.633 138.286 178.478 137.51L260.9 61.8458Z" fill="#BB8888" fill-opacity="0.5"/>
<path d="M152.162 173.81H177.704V181.37H160.91V190.658H175.004V198.218H160.91V215.93H152.162V173.81ZM197.328 215.93L196.788 212.96C194.79 215.12 191.82 216.632 187.824 216.632C181.398 216.632 179.076 212.636 179.076 208.046V207.506C179.076 201.296 183.342 199.244 189.336 198.326L195.924 197.3C195.87 194.492 194.952 193.088 192.036 193.088C188.958 193.088 188.202 194.87 188.202 196.76H180.156V196.274C180.156 191.306 182.856 186.608 192.306 186.608C201.648 186.608 204.456 190.604 204.456 197.516V207.83L204.996 215.93H197.328ZM190.956 209.72C193.386 209.72 195.006 208.532 195.924 207.56V202.322L191.064 203.078C188.418 203.51 187.554 204.752 187.554 206.48V206.804C187.554 208.262 188.472 209.72 190.956 209.72ZM210.009 215.93V172.73H218.541V215.93H210.009ZM235.693 210.152C238.447 210.152 239.527 208.964 239.527 207.344C239.527 205.562 238.609 204.752 235.261 204.482C227.161 203.834 223.651 201.836 223.651 196.436V195.95C223.651 189.362 228.889 186.608 235.693 186.608C244.117 186.608 247.735 190.28 247.735 196.436V196.706H239.365C239.365 194.438 238.285 193.088 235.693 193.088C233.317 193.088 232.075 194.114 232.075 195.68C232.075 197.408 232.885 198.164 236.179 198.434C243.361 199.028 248.113 200.486 248.113 206.534V207.02C248.113 212.96 243.955 216.632 235.693 216.632C227.323 216.632 223.327 212.69 223.327 207.128V206.858H231.805C231.805 208.748 232.831 210.152 235.693 210.152ZM278.37 204.698H260.118C260.442 208.694 262.332 210.152 265.518 210.152C268.488 210.152 270.324 208.478 270.324 206.75H278.37V206.966C278.37 212.42 273.726 216.632 265.464 216.632C255.96 216.632 251.586 210.638 251.586 202.376V200.864C251.586 192.602 256.122 186.608 265.14 186.608C274.212 186.608 278.37 192.602 278.37 200.864V204.698ZM264.978 193.088C261.954 193.088 260.442 194.816 260.172 198.542H269.784C269.514 194.816 268.002 193.088 264.978 193.088Z" fill="#9A5252"/>
<path d="M173.612 246.621C172.619 246.621 171.76 246.411 171.036 245.989C170.315 245.562 169.759 244.97 169.367 244.212C168.975 243.449 168.779 242.565 168.779 241.559C168.779 240.545 168.975 239.658 169.367 238.9C169.759 238.137 170.315 237.545 171.036 237.123C171.76 236.697 172.619 236.484 173.612 236.484C174.604 236.484 175.461 236.697 176.181 237.123C176.906 237.545 177.464 238.137 177.856 238.9C178.248 239.658 178.444 240.545 178.444 241.559C178.444 242.565 178.248 243.449 177.856 244.212C177.464 244.97 176.906 245.562 176.181 245.989C175.461 246.411 174.604 246.621 173.612 246.621ZM173.624 244.512C174.076 244.512 174.453 244.384 174.756 244.129C175.058 243.869 175.286 243.515 175.44 243.067C175.597 242.62 175.676 242.111 175.676 241.54C175.676 240.969 175.597 240.46 175.44 240.012C175.286 239.565 175.058 239.211 174.756 238.951C174.453 238.691 174.076 238.561 173.624 238.561C173.168 238.561 172.785 238.691 172.474 238.951C172.167 239.211 171.935 239.565 171.777 240.012C171.624 240.46 171.547 240.969 171.547 241.54C171.547 242.111 171.624 242.62 171.777 243.067C171.935 243.515 172.167 243.869 172.474 244.129C172.785 244.384 173.168 244.512 173.624 244.512ZM180.215 246.43V236.612H182.854V238.325H182.957C183.136 237.715 183.436 237.255 183.858 236.944C184.28 236.629 184.766 236.471 185.315 236.471C185.452 236.471 185.599 236.479 185.756 236.496C185.914 236.513 186.053 236.537 186.172 236.567V238.983C186.044 238.945 185.867 238.911 185.641 238.881C185.416 238.851 185.209 238.836 185.021 238.836C184.621 238.836 184.263 238.923 183.948 239.098C183.636 239.268 183.389 239.507 183.206 239.814C183.027 240.121 182.938 240.474 182.938 240.875V246.43H180.215ZM191.746 250.112V236.612H194.43V238.261H194.552C194.671 237.996 194.844 237.728 195.07 237.455C195.3 237.178 195.598 236.948 195.965 236.765C196.335 236.577 196.796 236.484 197.345 236.484C198.061 236.484 198.722 236.671 199.327 237.046C199.932 237.417 200.416 237.977 200.778 238.727C201.14 239.473 201.321 240.408 201.321 241.533C201.321 242.629 201.144 243.553 200.791 244.308C200.441 245.058 199.964 245.626 199.359 246.014C198.758 246.398 198.085 246.589 197.339 246.589C196.81 246.589 196.361 246.502 195.99 246.327C195.624 246.153 195.323 245.933 195.089 245.669C194.854 245.401 194.676 245.13 194.552 244.857H194.469V250.112H191.746ZM194.411 241.521C194.411 242.104 194.492 242.614 194.654 243.048C194.816 243.483 195.051 243.822 195.357 244.065C195.664 244.303 196.037 244.423 196.476 244.423C196.919 244.423 197.294 244.301 197.601 244.058C197.908 243.811 198.14 243.47 198.298 243.036C198.46 242.597 198.541 242.092 198.541 241.521C198.541 240.954 198.462 240.455 198.304 240.025C198.146 239.594 197.914 239.258 197.607 239.015C197.301 238.772 196.923 238.651 196.476 238.651C196.033 238.651 195.658 238.768 195.351 239.002C195.048 239.237 194.816 239.569 194.654 239.999C194.492 240.43 194.411 240.937 194.411 241.521ZM203.136 246.43V236.612H205.776V238.325H205.879C206.058 237.715 206.358 237.255 206.78 236.944C207.202 236.629 207.688 236.471 208.237 236.471C208.374 236.471 208.521 236.479 208.678 236.496C208.836 236.513 208.975 236.537 209.094 236.567V238.983C208.966 238.945 208.789 238.911 208.563 238.881C208.337 238.851 208.131 238.836 207.943 238.836C207.543 238.836 207.185 238.923 206.869 239.098C206.558 239.268 206.311 239.507 206.128 239.814C205.949 240.121 205.859 240.474 205.859 240.875V246.43H203.136ZM214.519 246.621C213.509 246.621 212.64 246.417 211.911 246.008C211.187 245.594 210.628 245.011 210.236 244.256C209.844 243.498 209.648 242.601 209.648 241.565C209.648 240.555 209.844 239.669 210.236 238.906C210.628 238.143 211.18 237.549 211.892 237.123C212.608 236.697 213.447 236.484 214.41 236.484C215.058 236.484 215.661 236.588 216.219 236.797C216.782 237.001 217.272 237.31 217.69 237.724C218.111 238.137 218.44 238.657 218.674 239.283C218.908 239.906 219.025 240.634 219.025 241.469V242.217H210.735V240.53H216.462C216.462 240.138 216.377 239.79 216.207 239.488C216.036 239.185 215.8 238.949 215.497 238.778C215.199 238.604 214.851 238.516 214.455 238.516C214.042 238.516 213.675 238.612 213.356 238.804C213.04 238.991 212.793 239.245 212.614 239.565C212.435 239.88 212.344 240.232 212.339 240.619V242.224C212.339 242.71 212.429 243.129 212.608 243.483C212.791 243.837 213.049 244.109 213.381 244.301C213.714 244.493 214.108 244.589 214.564 244.589C214.866 244.589 215.143 244.546 215.395 244.461C215.646 244.376 215.861 244.248 216.04 244.077C216.219 243.907 216.356 243.698 216.449 243.451L218.968 243.617C218.84 244.222 218.578 244.751 218.182 245.202C217.79 245.65 217.283 245.999 216.66 246.251C216.043 246.498 215.329 246.621 214.519 246.621ZM228.972 239.411L226.479 239.565C226.436 239.352 226.344 239.16 226.204 238.989C226.063 238.815 225.878 238.676 225.648 238.574C225.422 238.467 225.151 238.414 224.836 238.414C224.414 238.414 224.058 238.504 223.768 238.683C223.479 238.857 223.334 239.092 223.334 239.386C223.334 239.62 223.427 239.818 223.615 239.98C223.802 240.142 224.124 240.272 224.58 240.37L226.357 240.728C227.312 240.924 228.023 241.239 228.492 241.674C228.961 242.109 229.195 242.68 229.195 243.387C229.195 244.031 229.006 244.595 228.626 245.081C228.251 245.567 227.736 245.946 227.079 246.219C226.427 246.487 225.675 246.621 224.823 246.621C223.523 246.621 222.488 246.351 221.717 245.81C220.949 245.264 220.5 244.523 220.368 243.585L223.046 243.445C223.127 243.841 223.323 244.143 223.634 244.352C223.945 244.557 224.344 244.659 224.829 244.659C225.307 244.659 225.69 244.567 225.98 244.384C226.274 244.197 226.423 243.956 226.427 243.662C226.423 243.415 226.319 243.212 226.114 243.055C225.91 242.893 225.594 242.769 225.168 242.684L223.468 242.345C222.509 242.153 221.795 241.821 221.327 241.348C220.862 240.875 220.63 240.272 220.63 239.539C220.63 238.908 220.8 238.365 221.141 237.909C221.486 237.453 221.97 237.102 222.592 236.854C223.219 236.607 223.952 236.484 224.791 236.484C226.031 236.484 227.007 236.746 227.719 237.27C228.435 237.794 228.852 238.508 228.972 239.411ZM239.079 239.411L236.586 239.565C236.543 239.352 236.452 239.16 236.311 238.989C236.171 238.815 235.985 238.676 235.755 238.574C235.529 238.467 235.259 238.414 234.943 238.414C234.521 238.414 234.166 238.504 233.876 238.683C233.586 238.857 233.441 239.092 233.441 239.386C233.441 239.62 233.535 239.818 233.722 239.98C233.91 240.142 234.232 240.272 234.688 240.37L236.465 240.728C237.419 240.924 238.131 241.239 238.6 241.674C239.068 242.109 239.303 242.68 239.303 243.387C239.303 244.031 239.113 244.595 238.734 245.081C238.359 245.567 237.843 245.946 237.187 246.219C236.535 246.487 235.783 246.621 234.93 246.621C233.631 246.621 232.595 246.351 231.824 245.81C231.057 245.264 230.607 244.523 230.475 243.585L233.153 243.445C233.234 243.841 233.43 244.143 233.742 244.352C234.053 244.557 234.451 244.659 234.937 244.659C235.414 244.659 235.798 244.567 236.087 244.384C236.381 244.197 236.531 243.956 236.535 243.662C236.531 243.415 236.426 243.212 236.222 243.055C236.017 242.893 235.702 242.769 235.276 242.684L233.575 242.345C232.617 242.153 231.903 241.821 231.434 241.348C230.97 240.875 230.737 240.272 230.737 239.539C230.737 238.908 230.908 238.365 231.249 237.909C231.594 237.453 232.078 237.102 232.7 236.854C233.326 236.607 234.059 236.484 234.899 236.484C236.139 236.484 237.114 236.746 237.826 237.27C238.542 237.794 238.96 238.508 239.079 239.411ZM253.058 247.146L251.575 245.675L255.468 241.783H246.347V239.622H255.468L251.575 235.736L253.058 234.259L259.502 240.702L253.058 247.146Z" fill="#9A5252"/>
</svg>
