<svg width="49" height="50" viewBox="0 0 49 50" fill="none" xmlns="http://www.w3.org/2000/svg">
<path d="M22.626 12.0819C22.998 9.89198 26.144 9.89197 26.516 12.0819C26.7912 13.7023 28.811 14.2954 29.9186 13.081C31.4155 11.4398 34.0621 13.1407 33.1911 15.1841C32.5466 16.6961 33.9251 18.287 35.5134 17.8642C37.66 17.2929 38.9669 20.1546 37.1294 21.4027C35.7698 22.3262 36.0693 24.4098 37.634 24.9129C39.7488 25.5927 39.301 28.7067 37.0804 28.7633C35.4374 28.8051 34.5629 30.7199 35.6073 31.9891C37.0187 33.7043 34.9585 36.0819 33.0599 34.9289C31.655 34.0759 29.8841 35.2139 30.0765 36.8462C30.3366 39.0523 27.318 39.9386 26.3441 37.9421C25.6235 36.465 23.5184 36.465 22.7978 37.9421C21.8239 39.9386 18.8054 39.0523 19.0654 36.8462C19.2578 35.2139 17.4869 34.0759 16.0821 34.9289C14.1834 36.0819 12.1232 33.7043 13.5347 31.9891C14.579 30.7199 13.7046 28.8051 12.0615 28.7633C9.8409 28.7067 9.39318 25.5927 11.5079 24.9129C13.0726 24.4098 13.3722 22.3262 12.0126 21.4027C10.1751 20.1546 11.482 17.2929 13.6286 17.8642C15.2168 18.287 16.5954 16.6961 15.9509 15.1841C15.0798 13.1407 17.7264 11.4398 19.2234 13.081C20.3309 14.2954 22.3507 13.7023 22.626 12.0819Z" fill="#E17A7A"/>
<path d="M27.2188 26.2969H29.1719C29.1094 27.0417 28.901 27.7057 28.5469 28.2891C28.1927 28.8672 27.6953 29.3229 27.0547 29.6562C26.4141 29.9896 25.6354 30.1562 24.7188 30.1562C24.0156 30.1562 23.3828 30.0312 22.8203 29.7812C22.2578 29.526 21.776 29.1667 21.375 28.7031C20.974 28.2344 20.6667 27.6693 20.4531 27.0078C20.2448 26.3464 20.1406 25.6068 20.1406 24.7891V23.8438C20.1406 23.026 20.2474 22.2865 20.4609 21.625C20.6797 20.9635 20.9922 20.3984 21.3984 19.9297C21.8047 19.4557 22.2917 19.0938 22.8594 18.8438C23.4323 18.5938 24.0755 18.4688 24.7891 18.4688C25.6953 18.4688 26.4609 18.6354 27.0859 18.9688C27.7109 19.3021 28.1953 19.763 28.5391 20.3516C28.888 20.9401 29.1016 21.6146 29.1797 22.375H27.2266C27.1745 21.8854 27.0599 21.4661 26.8828 21.1172C26.7109 20.7682 26.4557 20.5026 26.1172 20.3203C25.7786 20.1328 25.3359 20.0391 24.7891 20.0391C24.3411 20.0391 23.9505 20.1224 23.6172 20.2891C23.2839 20.4557 23.0052 20.7005 22.7812 21.0234C22.5573 21.3464 22.388 21.7448 22.2734 22.2188C22.1641 22.6875 22.1094 23.224 22.1094 23.8281V24.7891C22.1094 25.362 22.1589 25.8828 22.2578 26.3516C22.362 26.8151 22.5182 27.2135 22.7266 27.5469C22.9401 27.8802 23.2109 28.138 23.5391 28.3203C23.8672 28.5026 24.2604 28.5938 24.7188 28.5938C25.276 28.5938 25.7266 28.5052 26.0703 28.3281C26.4193 28.151 26.6823 27.8932 26.8594 27.5547C27.0417 27.2109 27.1615 26.7917 27.2188 26.2969Z" fill="white"/>
</svg>
