<svg width="102" height="40" viewBox="0 0 102 40" fill="none" xmlns="http://www.w3.org/2000/svg">
<rect width="102" height="40" rx="20" fill="#EBC2C3" fill-opacity="0.5"/>
<circle cx="15" cy="20" r="3" fill="#E17A7A"/>
<path d="M28.9375 13.625V25H27.4297V13.625H28.9375ZM32.9062 18.3516V25H31.4609V16.5469H32.8281L32.9062 18.3516ZM32.5625 20.4531L31.9609 20.4297C31.9661 19.8516 32.0521 19.3177 32.2188 18.8281C32.3854 18.3333 32.6198 17.9036 32.9219 17.5391C33.224 17.1745 33.5833 16.8932 34 16.6953C34.4219 16.4922 34.888 16.3906 35.3984 16.3906C35.8151 16.3906 36.1901 16.4479 36.5234 16.5625C36.8568 16.6719 37.1406 16.849 37.375 17.0938C37.6146 17.3385 37.7969 17.6562 37.9219 18.0469C38.0469 18.4323 38.1094 18.9036 38.1094 19.4609V25H36.6562V19.4453C36.6562 19.0026 36.5911 18.6484 36.4609 18.3828C36.3307 18.112 36.1406 17.9167 35.8906 17.7969C35.6406 17.6719 35.3333 17.6094 34.9688 17.6094C34.6094 17.6094 34.2812 17.6849 33.9844 17.8359C33.6927 17.987 33.4401 18.1953 33.2266 18.4609C33.0182 18.7266 32.8542 19.0312 32.7344 19.375C32.6198 19.7135 32.5625 20.0729 32.5625 20.4531ZM43.6875 23.9688C44.0312 23.9688 44.349 23.8984 44.6406 23.7578C44.9323 23.6172 45.1719 23.4245 45.3594 23.1797C45.5469 22.9297 45.6536 22.6458 45.6797 22.3281H47.0547C47.0286 22.8281 46.8594 23.2943 46.5469 23.7266C46.2396 24.1536 45.8359 24.5 45.3359 24.7656C44.8359 25.026 44.2865 25.1562 43.6875 25.1562C43.0521 25.1562 42.4974 25.0443 42.0234 24.8203C41.5547 24.5964 41.1641 24.2891 40.8516 23.8984C40.5443 23.5078 40.3125 23.0599 40.1562 22.5547C40.0052 22.0443 39.9297 21.5052 39.9297 20.9375V20.6094C39.9297 20.0417 40.0052 19.5052 40.1562 19C40.3125 18.4896 40.5443 18.0391 40.8516 17.6484C41.1641 17.2578 41.5547 16.9505 42.0234 16.7266C42.4974 16.5026 43.0521 16.3906 43.6875 16.3906C44.349 16.3906 44.9271 16.526 45.4219 16.7969C45.9167 17.0625 46.3047 17.4271 46.5859 17.8906C46.8724 18.349 47.0286 18.8698 47.0547 19.4531H45.6797C45.6536 19.1042 45.5547 18.7891 45.3828 18.5078C45.2161 18.2266 44.987 18.0026 44.6953 17.8359C44.4089 17.6641 44.0729 17.5781 43.6875 17.5781C43.2448 17.5781 42.8724 17.6667 42.5703 17.8438C42.2734 18.0156 42.0365 18.25 41.8594 18.5469C41.6875 18.8385 41.5625 19.1641 41.4844 19.5234C41.4115 19.8776 41.375 20.2396 41.375 20.6094V20.9375C41.375 21.3073 41.4115 21.6719 41.4844 22.0312C41.5573 22.3906 41.6797 22.7161 41.8516 23.0078C42.0286 23.2995 42.2656 23.5339 42.5625 23.7109C42.8646 23.8828 43.2396 23.9688 43.6875 23.9688ZM48.2969 20.8672V20.6875C48.2969 20.0781 48.3854 19.513 48.5625 18.9922C48.7396 18.4661 48.9948 18.0104 49.3281 17.625C49.6615 17.2344 50.0651 16.9323 50.5391 16.7188C51.013 16.5 51.5443 16.3906 52.1328 16.3906C52.7266 16.3906 53.2604 16.5 53.7344 16.7188C54.2135 16.9323 54.6198 17.2344 54.9531 17.625C55.2917 18.0104 55.5495 18.4661 55.7266 18.9922C55.9036 19.513 55.9922 20.0781 55.9922 20.6875V20.8672C55.9922 21.4766 55.9036 22.0417 55.7266 22.5625C55.5495 23.0833 55.2917 23.5391 54.9531 23.9297C54.6198 24.3151 54.2161 24.6172 53.7422 24.8359C53.2734 25.0495 52.7422 25.1562 52.1484 25.1562C51.5547 25.1562 51.0208 25.0495 50.5469 24.8359C50.0729 24.6172 49.6667 24.3151 49.3281 23.9297C48.9948 23.5391 48.7396 23.0833 48.5625 22.5625C48.3854 22.0417 48.2969 21.4766 48.2969 20.8672ZM49.7422 20.6875V20.8672C49.7422 21.2891 49.7917 21.6875 49.8906 22.0625C49.9896 22.4323 50.138 22.7604 50.3359 23.0469C50.5391 23.3333 50.7917 23.5599 51.0938 23.7266C51.3958 23.888 51.7474 23.9688 52.1484 23.9688C52.5443 23.9688 52.8906 23.888 53.1875 23.7266C53.4896 23.5599 53.7396 23.3333 53.9375 23.0469C54.1354 22.7604 54.2839 22.4323 54.3828 22.0625C54.487 21.6875 54.5391 21.2891 54.5391 20.8672V20.6875C54.5391 20.2708 54.487 19.8776 54.3828 19.5078C54.2839 19.1328 54.1328 18.8021 53.9297 18.5156C53.7318 18.224 53.4818 17.9948 53.1797 17.8281C52.8828 17.6615 52.5339 17.5781 52.1328 17.5781C51.737 17.5781 51.388 17.6615 51.0859 17.8281C50.7891 17.9948 50.5391 18.224 50.3359 18.5156C50.138 18.8021 49.9896 19.1328 49.8906 19.5078C49.7917 19.8776 49.7422 20.2708 49.7422 20.6875ZM59.25 17.875V25H57.8047V16.5469H59.2109L59.25 17.875ZM61.8906 16.5L61.8828 17.8438C61.763 17.8177 61.6484 17.8021 61.5391 17.7969C61.4349 17.7865 61.3151 17.7812 61.1797 17.7812C60.8464 17.7812 60.5521 17.8333 60.2969 17.9375C60.0417 18.0417 59.8255 18.1875 59.6484 18.375C59.4714 18.5625 59.3307 18.7865 59.2266 19.0469C59.1276 19.3021 59.0625 19.5833 59.0312 19.8906L58.625 20.125C58.625 19.6146 58.6745 19.1354 58.7734 18.6875C58.8776 18.2396 59.0365 17.8438 59.25 17.5C59.4635 17.151 59.7344 16.8802 60.0625 16.6875C60.3958 16.4896 60.7917 16.3906 61.25 16.3906C61.3542 16.3906 61.474 16.4036 61.6094 16.4297C61.7448 16.4505 61.8385 16.474 61.8906 16.5ZM64.6719 17.875V25H63.2266V16.5469H64.6328L64.6719 17.875ZM67.3125 16.5L67.3047 17.8438C67.1849 17.8177 67.0703 17.8021 66.9609 17.7969C66.8568 17.7865 66.737 17.7812 66.6016 17.7812C66.2682 17.7812 65.974 17.8333 65.7188 17.9375C65.4635 18.0417 65.2474 18.1875 65.0703 18.375C64.8932 18.5625 64.7526 18.7865 64.6484 19.0469C64.5495 19.3021 64.4844 19.5833 64.4531 19.8906L64.0469 20.125C64.0469 19.6146 64.0964 19.1354 64.1953 18.6875C64.2995 18.2396 64.4583 17.8438 64.6719 17.5C64.8854 17.151 65.1562 16.8802 65.4844 16.6875C65.8177 16.4896 66.2135 16.3906 66.6719 16.3906C66.776 16.3906 66.8958 16.4036 67.0312 16.4297C67.1667 16.4505 67.2604 16.474 67.3125 16.5ZM72 25.1562C71.4115 25.1562 70.8776 25.0573 70.3984 24.8594C69.9245 24.6562 69.5156 24.3724 69.1719 24.0078C68.8333 23.6432 68.5729 23.2109 68.3906 22.7109C68.2083 22.2109 68.1172 21.6641 68.1172 21.0703V20.7422C68.1172 20.0547 68.2188 19.4427 68.4219 18.9062C68.625 18.3646 68.901 17.9062 69.25 17.5312C69.599 17.1562 69.9948 16.8724 70.4375 16.6797C70.8802 16.487 71.3385 16.3906 71.8125 16.3906C72.4167 16.3906 72.9375 16.4948 73.375 16.7031C73.8177 16.9115 74.1797 17.2031 74.4609 17.5781C74.7422 17.9479 74.9505 18.3854 75.0859 18.8906C75.2214 19.3906 75.2891 19.9375 75.2891 20.5312V21.1797H68.9766V20H73.8438V19.8906C73.8229 19.5156 73.7448 19.151 73.6094 18.7969C73.4792 18.4427 73.2708 18.151 72.9844 17.9219C72.6979 17.6927 72.3073 17.5781 71.8125 17.5781C71.4844 17.5781 71.1823 17.6484 70.9062 17.7891C70.6302 17.9245 70.3932 18.1276 70.1953 18.3984C69.9974 18.6693 69.8438 19 69.7344 19.3906C69.625 19.7812 69.5703 20.2318 69.5703 20.7422V21.0703C69.5703 21.4714 69.625 21.849 69.7344 22.2031C69.849 22.5521 70.013 22.8594 70.2266 23.125C70.4453 23.3906 70.7083 23.599 71.0156 23.75C71.3281 23.901 71.6823 23.9766 72.0781 23.9766C72.5885 23.9766 73.0208 23.8724 73.375 23.6641C73.7292 23.4557 74.0391 23.1771 74.3047 22.8281L75.1797 23.5234C74.9974 23.7995 74.7656 24.0625 74.4844 24.3125C74.2031 24.5625 73.8568 24.7656 73.4453 24.9219C73.0391 25.0781 72.5573 25.1562 72 25.1562ZM80.3594 23.9688C80.7031 23.9688 81.0208 23.8984 81.3125 23.7578C81.6042 23.6172 81.8438 23.4245 82.0312 23.1797C82.2188 22.9297 82.3255 22.6458 82.3516 22.3281H83.7266C83.7005 22.8281 83.5312 23.2943 83.2188 23.7266C82.9115 24.1536 82.5078 24.5 82.0078 24.7656C81.5078 25.026 80.9583 25.1562 80.3594 25.1562C79.724 25.1562 79.1693 25.0443 78.6953 24.8203C78.2266 24.5964 77.8359 24.2891 77.5234 23.8984C77.2161 23.5078 76.9844 23.0599 76.8281 22.5547C76.6771 22.0443 76.6016 21.5052 76.6016 20.9375V20.6094C76.6016 20.0417 76.6771 19.5052 76.8281 19C76.9844 18.4896 77.2161 18.0391 77.5234 17.6484C77.8359 17.2578 78.2266 16.9505 78.6953 16.7266C79.1693 16.5026 79.724 16.3906 80.3594 16.3906C81.0208 16.3906 81.599 16.526 82.0938 16.7969C82.5885 17.0625 82.9766 17.4271 83.2578 17.8906C83.5443 18.349 83.7005 18.8698 83.7266 19.4531H82.3516C82.3255 19.1042 82.2266 18.7891 82.0547 18.5078C81.888 18.2266 81.6589 18.0026 81.3672 17.8359C81.0807 17.6641 80.7448 17.5781 80.3594 17.5781C79.9167 17.5781 79.5443 17.6667 79.2422 17.8438C78.9453 18.0156 78.7083 18.25 78.5312 18.5469C78.3594 18.8385 78.2344 19.1641 78.1562 19.5234C78.0833 19.8776 78.0469 20.2396 78.0469 20.6094V20.9375C78.0469 21.3073 78.0833 21.6719 78.1562 22.0312C78.2292 22.3906 78.3516 22.7161 78.5234 23.0078C78.7005 23.2995 78.9375 23.5339 79.2344 23.7109C79.5365 23.8828 79.9115 23.9688 80.3594 23.9688ZM88.8906 16.5469V17.6562H84.3203V16.5469H88.8906ZM85.8672 14.4922H87.3125V22.9062C87.3125 23.1927 87.3568 23.4089 87.4453 23.5547C87.5339 23.7005 87.6484 23.7969 87.7891 23.8438C87.9297 23.8906 88.0807 23.9141 88.2422 23.9141C88.362 23.9141 88.487 23.9036 88.6172 23.8828C88.7526 23.8568 88.8542 23.8359 88.9219 23.8203L88.9297 25C88.8151 25.0365 88.6641 25.0703 88.4766 25.1016C88.2943 25.138 88.0729 25.1562 87.8125 25.1562C87.4583 25.1562 87.1328 25.0859 86.8359 24.9453C86.5391 24.8047 86.3021 24.5703 86.125 24.2422C85.9531 23.9089 85.8672 23.4609 85.8672 22.8984V14.4922Z" fill="#E17A7A"/>
</svg>
