<svg width="49" height="50" viewBox="0 0 49 50" fill="none" xmlns="http://www.w3.org/2000/svg">
<path d="M22.626 12.0819C22.998 9.89198 26.144 9.89197 26.516 12.0819C26.7912 13.7023 28.811 14.2954 29.9186 13.081C31.4155 11.4398 34.0621 13.1407 33.1911 15.1841C32.5466 16.6961 33.9251 18.287 35.5134 17.8642C37.66 17.2929 38.9669 20.1546 37.1294 21.4027C35.7698 22.3262 36.0693 24.4098 37.634 24.9129C39.7488 25.5927 39.301 28.7067 37.0804 28.7633C35.4374 28.8051 34.5629 30.7199 35.6073 31.9891C37.0187 33.7043 34.9585 36.0819 33.0599 34.9289C31.655 34.0759 29.8841 35.2139 30.0765 36.8462C30.3366 39.0523 27.318 39.9386 26.3441 37.9421C25.6235 36.465 23.5184 36.465 22.7978 37.9421C21.8239 39.9386 18.8054 39.0523 19.0654 36.8462C19.2578 35.2139 17.4869 34.0759 16.0821 34.9289C14.1834 36.0819 12.1232 33.7043 13.5347 31.9891C14.579 30.7199 13.7046 28.8051 12.0615 28.7633C9.8409 28.7067 9.39318 25.5927 11.5079 24.9129C13.0726 24.4098 13.3722 22.3262 12.0126 21.4027C10.1751 20.1546 11.482 17.2929 13.6286 17.8642C15.2168 18.287 16.5954 16.6961 15.9509 15.1841C15.0798 13.1407 17.7264 11.4398 19.2234 13.081C20.3309 14.2954 22.3507 13.7023 22.626 12.0819Z" fill="#E17A7A"/>
<path d="M23.8047 30H21.375L21.3906 28.4453H23.8047C24.5078 28.4453 25.0964 28.2917 25.5703 27.9844C26.0495 27.6771 26.4089 27.237 26.6484 26.6641C26.8932 26.0911 27.0156 25.4089 27.0156 24.6172V24C27.0156 23.3854 26.9453 22.8411 26.8047 22.3672C26.6693 21.8932 26.4661 21.4948 26.1953 21.1719C25.9297 20.849 25.6016 20.6042 25.2109 20.4375C24.8255 20.2708 24.3802 20.1875 23.875 20.1875H21.3281V18.625H23.875C24.6302 18.625 25.3203 18.7526 25.9453 19.0078C26.5703 19.2578 27.1094 19.6198 27.5625 20.0938C28.0208 20.5677 28.3724 21.1354 28.6172 21.7969C28.862 22.4583 28.9844 23.1979 28.9844 24.0156V24.6172C28.9844 25.4349 28.862 26.1745 28.6172 26.8359C28.3724 27.4974 28.0208 28.0651 27.5625 28.5391C27.1042 29.0078 26.5573 29.3698 25.9219 29.625C25.2917 29.875 24.5859 30 23.8047 30ZM22.4609 18.625V30H20.5V18.625H22.4609Z" fill="white"/>
</svg>
