<svg width="132" height="132" viewBox="0 0 132 132" fill="none" xmlns="http://www.w3.org/2000/svg">
<g clip-path="url(#clip0_3118_12175)">
<circle cx="65.7917" cy="65.7917" r="65.7917" fill="#FEAA6E"/>
<path d="M120.001 32.6107C75.3885 10.1821 35.4223 42.0304 5.32892 43.222C4.52761 43.2537 4.00014 42.4295 4.32796 41.6977L7.8278 33.8842C7.85239 33.8293 7.88263 33.7746 7.91586 33.7245C44.0987 -20.8964 103.438 0.248459 121.466 31.1695C122.011 32.1034 120.967 33.0962 120.001 32.6107Z" fill="#C48A65" stroke="#C48A65" stroke-width="0.331875"/>
<path d="M74.6403 47.0724C83.5692 31.9964 112.178 35.085 125.032 38.5802C125.356 38.6682 125.609 38.8983 125.74 39.207L128.104 44.7685L129.592 49.2334C129.829 49.9432 129.312 50.6785 128.564 50.6926C111.331 51.0175 77.7405 52.6679 74.601 47.879C74.4413 47.6355 74.4919 47.323 74.6403 47.0724Z" fill="#B8825E" stroke="#C38963" stroke-width="0.331875"/>
<path d="M68.5585 85.7194C58.224 77.5901 19.5389 70.0355 0.559859 67.4785C-0.173281 67.3797 -0.679584 66.7101 -0.584915 65.9765L0.970653 53.9208C1.00993 53.6164 1.36283 53.4674 1.60836 53.6516C1.6449 53.679 1.68322 53.6991 1.72683 53.7127C6.06406 55.0675 17.134 58.7571 33.7572 61.0818C52.3833 65.5501 110.675 64.6775 130.709 62.5446C131.175 62.495 131.616 62.6841 131.797 63.116C133.693 67.6465 131.204 84.2019 125.882 92.8076C125.722 93.0669 125.476 93.2546 125.185 93.3481C105.436 99.7168 81.6838 96.0439 68.5585 85.7194Z" fill="#C38963" stroke="#C38963" stroke-width="0.401726"/>
<path d="M51.7256 110.864C37.5436 107.149 32.8198 114.185 28.7396 119.04C28.2509 119.621 27.3771 119.648 26.8339 119.117L21.1842 113.596L21.1836 113.595C21.1773 113.589 21.1743 113.586 21.1676 113.58C20.9522 113.378 15.4109 108.161 12.5531 104.209C9.59812 100.122 6.33427 93.5556 4.80858 90.3549C4.39 89.4768 5.03702 88.4805 6.00972 88.495C40.6695 89.0112 72.247 102.282 79.1398 109.753C79.6644 110.322 79.4325 111.171 78.7081 111.442C74.6198 112.972 65.2524 114.407 51.7256 110.864Z" fill="#C38963" stroke="#C38963" stroke-width="0.401726"/>
<circle cx="63.5473" cy="74.7704" r="46.994" fill="white" fill-opacity="0.12"/>
</g>
<defs>
<clipPath id="clip0_3118_12175">
<rect width="131.583" height="131.583" fill="white"/>
</clipPath>
</defs>
</svg>
