<svg width="37" height="41" viewBox="0 0 37 41" fill="none" xmlns="http://www.w3.org/2000/svg">
<g opacity="0.7">
<path d="M36 20C36.5 33.5 31.5 40.5 19 40.5C6.5 40.5 0.5 34 0.5 20C0.5 8.40202 7.40202 0 19 0C30.5 2 36 8.40202 36 20Z" fill="#C7D1E2"/>
<rect width="36.6621" height="38.3842" rx="18.331" fill="#FEFFFF"/>
<path d="M22.609 18.8311H14.0533C13.3783 18.8311 12.8311 19.3783 12.8311 20.0533V24.3312C12.8311 25.0062 13.3783 25.5534 14.0533 25.5534H22.609C23.2841 25.5534 23.8313 25.0062 23.8313 24.3312V20.0533C23.8313 19.3783 23.2841 18.8311 22.609 18.8311Z" stroke="#8AAAA9" stroke-width="3" stroke-linecap="round" stroke-linejoin="round"/>
<path d="M15.2754 18.3312V15.8867C15.2754 15.0763 15.5973 14.2991 16.1704 13.726C16.7434 13.153 17.5206 12.8311 18.331 12.8311C19.1414 12.8311 19.9186 13.153 20.4917 13.726C21.0647 14.2991 21.3866 15.0763 21.3866 15.8867V18.3312" stroke="#5A6666" stroke-width="1.22225" stroke-linecap="round" stroke-linejoin="round"/>
<path d="M22.6088 18.3311H14.0533C13.3783 18.3311 12.8311 18.9009 12.8311 19.6038V24.0583C12.8311 24.7612 13.3783 25.3311 14.0533 25.3311H22.6088C23.2838 25.3311 23.8311 24.7612 23.8311 24.0583V19.6038C23.8311 18.9009 23.2838 18.3311 22.6088 18.3311Z" fill="#C9E7E7" stroke="#C9E7E7" stroke-width="1.22225" stroke-linecap="round" stroke-linejoin="round"/>
<line x1="18.3311" y1="19.8311" x2="18.3311" y2="22.8311" stroke="#5A6666"/>
</g>
</svg>
