<svg width="79" height="79" viewBox="0 0 79 79" fill="none" xmlns="http://www.w3.org/2000/svg">
<path d="M31.1393 5.58788C31.6832 -0.420809 40.202 -1.08652 41.6727 4.76473C42.7609 9.0941 48.3555 10.2726 51.0977 6.75008C54.8038 1.98931 62.3301 6.03484 60.4039 11.7524C58.9787 15.9828 63.0481 19.9989 67.2594 18.5181C72.951 16.5167 77.0954 23.9891 72.3838 27.7576C68.8977 30.5459 70.1499 36.1246 74.4932 37.1556C80.3633 38.5491 79.8099 47.0759 73.8089 47.6989C69.3687 48.1599 67.406 53.5299 70.5024 56.7454C74.6873 61.0913 69.6119 67.9653 64.2267 65.245C60.2421 63.2323 55.6878 66.6887 56.5542 71.0678C57.7251 76.9864 49.739 80.0251 46.6794 74.8252C44.4156 70.9778 38.7155 71.4232 37.0769 75.5756C34.8621 81.1877 26.5009 79.4264 26.7383 73.3978C26.9139 68.9373 21.8779 66.2303 18.2544 68.8376C13.3572 72.3614 7.27548 66.3593 10.7344 61.4161C13.2937 57.7585 10.5207 52.7586 6.06281 52.993C0.0378748 53.3098 -1.8334 44.9725 3.74899 42.684C7.87942 40.9908 8.24972 35.2853 4.37281 33.0724C-0.866937 30.0815 2.06632 22.0561 7.99976 23.149C12.3899 23.9576 15.786 19.3581 13.721 15.4005C10.93 10.0516 17.7365 4.88598 22.1372 9.01324C25.3932 12.067 30.7369 10.0337 31.1393 5.58788Z" fill="#F6C011"/>
</svg>
