<svg width="121" height="121" viewBox="0 0 121 121" fill="none" xmlns="http://www.w3.org/2000/svg">
<path d="M55.5447 28.8803C56.4633 23.4729 64.2312 23.4729 65.1497 28.8803C65.8293 32.8811 70.8164 34.3455 73.5512 31.3472C77.2474 27.2948 83.7821 31.4945 81.6314 36.54C80.0401 40.2732 83.4439 44.2013 87.3655 43.1575C92.6658 41.7467 95.8927 48.8127 91.3556 51.8945C87.9986 54.1747 88.7383 59.3195 92.6017 60.5616C97.8233 62.2403 96.7178 69.9291 91.2348 70.0688C87.1779 70.1721 85.0187 74.9 87.5973 78.0337C91.0824 82.2689 85.9955 88.1395 81.3074 85.2926C77.8387 83.1862 73.4661 85.9963 73.9412 90.0266C74.5833 95.4737 67.1301 97.6621 64.7253 92.7326C62.9461 89.0853 57.7484 89.0853 55.9691 92.7326C53.5644 97.6621 46.1111 95.4737 46.7532 90.0266C47.2283 85.9963 42.8558 83.1862 39.387 85.2926C34.699 88.1395 29.6121 82.2689 33.0971 78.0337C35.6757 74.9 33.5165 70.1721 29.4597 70.0688C23.9767 69.9291 22.8712 62.2403 28.0927 60.5616C31.9562 59.3195 32.6959 54.1747 29.3389 51.8945C24.8018 48.8127 28.0287 41.7467 33.3289 43.1575C37.2506 44.2013 40.6543 40.2732 39.063 36.54C36.9123 31.4945 43.4471 27.2948 47.1432 31.3472C49.878 34.3455 54.8651 32.8811 55.5447 28.8803Z" fill="#F6C011"/>
<path d="M59.7758 69.0967H56.5624L56.5878 66.5183H59.7758C60.7665 66.5183 61.5583 66.3363 62.151 65.9721C62.7437 65.5996 63.1713 65.0322 63.4338 64.2702C63.6963 63.5081 63.8276 62.5343 63.8276 61.3489V58.3386C63.8276 57.4241 63.7514 56.6451 63.5989 56.0016C63.455 55.3496 63.2264 54.8204 62.9131 54.4139C62.6082 53.999 62.206 53.6942 61.7064 53.4994C61.2068 53.2962 60.6057 53.1946 59.9028 53.1946H56.4989V50.6035H59.9028C60.9613 50.6035 61.9181 50.7729 62.7733 51.1116C63.6286 51.4503 64.361 51.9499 64.9707 52.6103C65.5888 53.2623 66.063 54.071 66.3932 55.0363C66.7235 56.0016 66.8886 57.1108 66.8886 58.364V61.3489C66.8886 62.6021 66.7235 63.7113 66.3932 64.6766C66.063 65.6334 65.5888 66.4421 64.9707 67.1026C64.3525 67.7546 63.6074 68.2499 62.7352 68.5886C61.8631 68.9273 60.8766 69.0967 59.7758 69.0967ZM58.3279 50.6035V69.0967H55.2414V50.6035H58.3279Z" fill="#141E31"/>
</svg>
