<svg width="122" height="122" viewBox="0 0 122 122" fill="none" xmlns="http://www.w3.org/2000/svg">
<path d="M56.2713 29.0912C57.1898 23.6839 64.9577 23.6839 65.8763 29.0912V29.0912C66.5559 33.0921 71.543 34.5564 74.2778 31.5581V31.5581C77.9739 27.5058 84.5087 31.7054 82.358 36.7509V36.7509C80.7667 40.4841 84.1704 44.4123 88.0921 43.3684V43.3684C93.3923 41.9577 96.6192 49.0236 92.0821 52.1054V52.1054C88.7251 54.3857 89.4648 59.5304 93.3283 60.7725V60.7725C98.5498 62.4512 97.4443 70.1401 91.9613 70.2797V70.2797C87.9045 70.383 85.7453 75.111 88.3239 78.2446V78.2446C91.8089 82.4798 86.7221 88.3504 82.034 85.5036V85.5036C78.5652 83.3972 74.1927 86.2072 74.6678 90.2375V90.2375C75.3099 95.6846 67.8566 97.8731 65.4519 92.9436V92.9436C63.6726 89.2962 58.475 89.2962 56.6957 92.9436V92.9436C54.2909 97.8731 46.8377 95.6846 47.4798 90.2375V90.2375C47.9549 86.2072 43.5823 83.3972 40.1136 85.5036V85.5036C35.4255 88.3504 30.3386 82.4798 33.8237 78.2446V78.2446C36.4023 75.111 34.2431 70.383 30.1862 70.2797V70.2797C24.7032 70.1401 23.5977 62.4512 28.8193 60.7725V60.7725C32.6827 59.5304 33.4224 54.3857 30.0654 52.1054V52.1054C25.5283 49.0236 28.7552 41.9577 34.0555 43.3684V43.3684C37.9771 44.4123 41.3809 40.4841 39.7896 36.7509V36.7509C37.6389 31.7054 44.1737 27.5058 47.8698 31.5581V31.5581C50.6046 34.5564 55.5917 33.0921 56.2713 29.0912V29.0912Z" fill="#F6C011"/>
<path d="M61.5901 53.3547L57.1192 69.3076H53.893L59.7611 50.8145H61.7679L61.5901 53.3547ZM65.1591 69.3076L60.6756 53.3547L60.4596 50.8145H62.5046L68.398 69.3076H65.1591ZM65.2353 62.4362V65.0273H56.6238V62.4362H65.2353Z" fill="#141E31"/>
</svg>
