<svg width="121" height="122" viewBox="0 0 121 122" fill="none" xmlns="http://www.w3.org/2000/svg">
<path d="M55.5447 29.0912C56.4633 23.6839 64.2312 23.6839 65.1497 29.0912C65.8293 33.0921 70.8164 34.5564 73.5512 31.5581C77.2474 27.5058 83.7821 31.7054 81.6314 36.7509C80.0401 40.4841 83.4439 44.4123 87.3655 43.3684C92.6658 41.9577 95.8927 49.0236 91.3556 52.1054C87.9986 54.3857 88.7383 59.5304 92.6017 60.7725C97.8233 62.4512 96.7178 70.1401 91.2348 70.2797C87.1779 70.383 85.0187 75.111 87.5973 78.2446C91.0824 82.4798 85.9955 88.3504 81.3074 85.5036C77.8387 83.3972 73.4661 86.2072 73.9412 90.2375C74.5833 95.6846 67.1301 97.8731 64.7253 92.9436C62.9461 89.2962 57.7484 89.2962 55.9691 92.9436C53.5644 97.8731 46.1111 95.6846 46.7532 90.2375C47.2283 86.2072 42.8558 83.3972 39.387 85.5036C34.699 88.3504 29.6121 82.4798 33.0971 78.2446C35.6757 75.111 33.5165 70.383 29.4597 70.2797C23.9767 70.1401 22.8712 62.4512 28.0927 60.7725C31.9562 59.5304 32.6959 54.3857 29.3389 52.1054C24.8018 49.0236 28.0287 41.9577 33.3289 43.3684C37.2506 44.4123 40.6543 40.4841 39.063 36.7509C36.9123 31.7054 43.4471 27.5058 47.1432 31.5581C49.878 34.5564 54.8651 33.0921 55.5447 29.0912Z" fill="#F6C011"/>
<path d="M61.3635 60.9755H57.5912L57.5785 58.6131H60.919C61.4355 58.6131 61.8758 58.5115 62.2399 58.3083C62.604 58.105 62.8792 57.8087 63.0655 57.4192C63.2602 57.0296 63.3576 56.5597 63.3576 56.0093C63.3576 55.3996 63.2687 54.9043 63.0909 54.5233C62.9215 54.1337 62.659 53.8501 62.3034 53.6723C61.9478 53.4944 61.4905 53.4055 60.9317 53.4055H58.5057V69.3076H55.4193V50.8145H60.9317C61.7953 50.8145 62.5659 50.9118 63.2433 51.1066C63.9207 51.3013 64.4965 51.6062 64.9707 52.0211C65.4533 52.436 65.8174 52.9568 66.063 53.5834C66.317 54.21 66.444 54.9551 66.444 55.8188C66.444 56.5724 66.2832 57.2667 65.9614 57.9018C65.6396 58.5284 65.1612 59.0449 64.5261 59.4514C63.8995 59.8493 63.1205 60.0864 62.1891 60.1626L61.3635 60.9755ZM61.2492 69.3076H56.5751L57.9976 66.7292H61.2492C61.7996 66.7292 62.2526 66.6107 62.6082 66.3736C62.9639 66.1365 63.2306 65.8063 63.4084 65.3829C63.5862 64.9595 63.6751 64.4642 63.6751 63.8968C63.6751 63.3041 63.5989 62.7876 63.4465 62.3473C63.2941 61.907 63.0485 61.5683 62.7098 61.3312C62.3711 61.0941 61.9224 60.9755 61.3635 60.9755H58.2517L58.2771 58.6131H62.2526L62.9639 59.5149C63.853 59.5318 64.5769 59.752 65.1358 60.1753C65.6947 60.5903 66.1053 61.128 66.3678 61.7884C66.6303 62.4489 66.7616 63.1559 66.7616 63.9095C66.7616 65.0865 66.5414 66.0772 66.1011 66.8817C65.6693 67.6776 65.0427 68.283 64.2213 68.698C63.3999 69.1044 62.4092 69.3076 61.2492 69.3076Z" fill="#141E31"/>
</svg>
