<svg width="122" height="121" viewBox="0 0 122 121" fill="none" xmlns="http://www.w3.org/2000/svg">
<path d="M56.2713 28.8803C57.1898 23.4729 64.9577 23.4729 65.8763 28.8803C66.5559 32.8811 71.543 34.3455 74.2778 31.3472C77.9739 27.2948 84.5087 31.4945 82.358 36.54C80.7667 40.2732 84.1704 44.2013 88.0921 43.1575C93.3923 41.7467 96.6192 48.8127 92.0821 51.8945C88.7251 54.1747 89.4648 59.3195 93.3283 60.5616C98.5498 62.2403 97.4443 69.9291 91.9613 70.0688C87.9045 70.1721 85.7453 74.9 88.3239 78.0337C91.8089 82.2689 86.7221 88.1395 82.034 85.2926C78.5652 83.1862 74.1927 85.9963 74.6678 90.0266C75.3099 95.4737 67.8566 97.6621 65.4519 92.7326C63.6726 89.0853 58.4749 89.0853 56.6957 92.7326C54.2909 97.6621 46.8377 95.4737 47.4798 90.0266C47.9549 85.9963 43.5823 83.1862 40.1136 85.2926C35.4255 88.1395 30.3386 82.2689 33.8237 78.0337C36.4023 74.9 34.2431 70.1721 30.1862 70.0688C24.7032 69.9291 23.5977 62.2403 28.8193 60.5616C32.6827 59.3195 33.4225 54.1747 30.0654 51.8945C25.5283 48.8127 28.7552 41.7467 34.0555 43.1575C37.9771 44.2013 41.3809 40.2732 39.7896 36.54C37.6389 31.4945 44.1736 27.2948 47.8698 31.3472C50.6046 34.3455 55.5917 32.8811 56.2713 28.8803Z" fill="#F6C011"/>
<path d="M64.9733 63.0635H68.047C67.9877 64.4014 67.7168 65.5403 67.2341 66.4802C66.7515 67.4116 66.0571 68.1229 65.1511 68.614C64.2535 69.1051 63.157 69.3507 61.8614 69.3507C60.8792 69.3507 59.9986 69.1729 59.2196 68.8173C58.449 68.4616 57.7928 67.9493 57.2508 67.2804C56.7089 66.603 56.294 65.7774 56.0061 64.8036C55.7267 63.8299 55.587 62.7248 55.587 61.4886V58.2116C55.587 56.9754 55.7309 55.8703 56.0188 54.8966C56.3152 53.9228 56.7386 53.0972 57.289 52.4198C57.8393 51.7424 58.5083 51.2301 59.2958 50.883C60.0917 50.5273 60.9893 50.3495 61.9885 50.3495C63.2671 50.3495 64.3424 50.5951 65.2146 51.0862C66.0868 51.5773 66.7599 52.297 67.2341 53.2454C67.7083 54.1938 67.9835 55.3496 68.0597 56.7129H64.986C64.9436 55.7899 64.8166 55.0532 64.6049 54.5028C64.4017 53.944 64.0884 53.5418 63.665 53.2962C63.2501 53.0506 62.6913 52.9279 61.9885 52.9279C61.4042 52.9279 60.9004 53.0379 60.477 53.2581C60.0621 53.4783 59.7191 53.8085 59.4482 54.2488C59.1857 54.6807 58.9867 55.2268 58.8512 55.8873C58.7242 56.5393 58.6607 57.3056 58.6607 58.1862V61.4886C58.6607 62.3353 58.7157 63.0847 58.8258 63.7367C58.9359 64.3887 59.1137 64.9433 59.3593 65.4006C59.6048 65.8494 59.9308 66.1923 60.3373 66.4294C60.7437 66.658 61.2518 66.7723 61.8614 66.7723C62.5896 66.7723 63.1697 66.658 63.6015 66.4294C64.0418 66.2008 64.3678 65.8155 64.5795 65.2736C64.7912 64.7317 64.9225 63.995 64.9733 63.0635Z" fill="#141E31"/>
</svg>
