<svg width="58" height="58" viewBox="0 0 58 58" fill="none" xmlns="http://www.w3.org/2000/svg">
<g clip-path="url(#clip0_3118_12182)">
<circle cx="28.5838" cy="28.5824" r="28.5833" fill="#05B0F1"/>
<path d="M52.1349 14.1668C32.7528 4.42264 15.3894 18.2592 2.3153 18.7769C1.96717 18.7907 1.73801 18.4326 1.88043 18.1147L3.40094 14.7201C3.41163 14.6962 3.42477 14.6725 3.4392 14.6507C19.1589 -9.07946 44.9389 0.106967 52.7713 13.5407C53.0079 13.9464 52.5545 14.3778 52.1349 14.1668Z" fill="#01A5D3" stroke="#01A5D3" stroke-width="0.144184"/>
<path d="M32.4287 20.4494C36.3079 13.8996 48.737 15.2415 54.3217 16.76C54.4623 16.7982 54.5723 16.8982 54.6293 17.0323L55.6562 19.4485L56.3028 21.3883C56.4056 21.6967 56.181 22.0161 55.8559 22.0222C48.3689 22.1634 33.7756 22.8804 32.4117 20.7999C32.3423 20.6941 32.3643 20.5583 32.4287 20.4494Z" fill="#00A6D3" stroke="#01A5CF" stroke-width="0.144184"/>
<path d="M29.7864 37.241C25.2965 33.7092 8.48967 30.4271 0.244192 29.3161C-0.0743224 29.2732 -0.294286 28.9823 -0.253157 28.6636L0.422662 23.426C0.439725 23.2937 0.593046 23.229 0.699713 23.309C0.71559 23.3209 0.732239 23.3297 0.751183 23.3356C2.6355 23.9242 7.44485 25.5271 14.6668 26.5371C22.759 28.4783 48.0839 28.0993 56.7878 27.1726C56.9901 27.1511 57.1819 27.2332 57.2604 27.4208C58.0841 29.3891 57.0027 36.5817 54.6907 40.3204C54.6211 40.4331 54.5141 40.5146 54.388 40.5553C45.8079 43.3222 35.4887 41.7264 29.7864 37.241Z" fill="#01A5CF" stroke="#01A5CF" stroke-width="0.174531"/>
<path d="M22.4735 48.1644C16.312 46.5507 14.2598 49.6072 12.4871 51.7164C12.2748 51.9691 11.8952 51.9808 11.6592 51.7501L9.20466 49.3514L9.19747 49.3445C9.10389 49.2566 6.69644 46.9903 5.45488 45.2732C4.17108 43.4977 2.75309 40.6448 2.09025 39.2542C1.90839 38.8727 2.1895 38.4399 2.61209 38.4462C17.6701 38.6705 31.389 44.4361 34.3836 47.6819C34.6115 47.9289 34.5108 48.2977 34.196 48.4155C32.4199 49.0804 28.3502 49.7035 22.4735 48.1644Z" fill="#01A5CF" stroke="#01A5CF" stroke-width="0.174531"/>
</g>
<defs>
<clipPath id="clip0_3118_12182">
<rect width="57.1667" height="57.1667" fill="white"/>
</clipPath>
</defs>
</svg>
