<svg width="49" height="50" viewBox="0 0 49 50" fill="none" xmlns="http://www.w3.org/2000/svg">
<path d="M22.626 12.0829C22.998 9.89295 26.144 9.89295 26.516 12.0829C26.7912 13.7033 28.811 14.2963 29.9186 13.082C31.4155 11.4408 34.0621 13.1417 33.1911 15.1851C32.5466 16.6971 33.9251 18.2879 35.5134 17.8652C37.66 17.2938 38.9669 20.1555 37.1294 21.4037C35.7698 22.3272 36.0693 24.4108 37.634 24.9138C39.7488 25.5937 39.301 28.7077 37.0804 28.7643C35.4374 28.8061 34.5629 30.7209 35.6073 31.9901C37.0187 33.7053 34.9585 36.0829 33.0599 34.9299C31.655 34.0768 29.8841 35.2149 30.0765 36.8472C30.3366 39.0532 27.318 39.9396 26.3441 37.9431C25.6235 36.4659 23.5184 36.4659 22.7978 37.9431C21.8239 39.9396 18.8054 39.0532 19.0654 36.8472C19.2578 35.2149 17.4869 34.0768 16.0821 34.9299C14.1834 36.0829 12.1232 33.7053 13.5347 31.9901C14.579 30.7209 13.7046 28.8061 12.0615 28.7643C9.8409 28.7077 9.39318 25.5937 11.5079 24.9138C13.0726 24.4108 13.3722 22.3272 12.0126 21.4037C10.1751 20.1555 11.482 17.2938 13.6286 17.8652C15.2168 18.2879 16.5954 16.6971 15.9509 15.1851C15.0798 13.1417 17.7264 11.4408 19.2234 13.082C20.3309 14.2963 22.3507 13.7033 22.626 12.0829Z" fill="#949494"/>
<path d="M24.8516 20.1406L21.4531 30H19.3984L23.6797 18.625H24.9922L24.8516 20.1406ZM27.6953 30L24.2891 20.1406L24.1406 18.625H25.4609L29.7578 30H27.6953ZM27.5312 25.7812V27.3359H21.3438V25.7812H27.5312Z" fill="white"/>
</svg>
