<svg width="50" height="50" viewBox="0 0 50 50" fill="none" xmlns="http://www.w3.org/2000/svg">
<path d="M22.9619 12.0829C23.3339 9.89295 26.4799 9.89295 26.8519 12.0829C27.1272 13.7033 29.1469 14.2963 30.2545 13.082C31.7515 11.4408 34.398 13.1417 33.527 15.1851C32.8825 16.6971 34.2611 18.2879 35.8493 17.8652C37.9959 17.2938 39.3028 20.1555 37.4653 21.4037C36.1057 22.3272 36.4053 24.4108 37.97 24.9138C40.0847 25.5937 39.637 28.7077 37.4164 28.7643C35.7733 28.8061 34.8989 30.7209 35.9432 31.9901C37.3547 33.7053 35.2945 36.0829 33.3958 34.9299C31.991 34.0768 30.2201 35.2149 30.4125 36.8472C30.6725 39.0532 27.654 39.9396 26.68 37.9431C25.9594 36.4659 23.8544 36.4659 23.1338 37.9431C22.1599 39.9396 19.1413 39.0532 19.4013 36.8472C19.5938 35.2149 17.8229 34.0768 16.418 34.9299C14.5194 36.0829 12.4592 33.7053 13.8706 31.9901C14.915 30.7209 14.0405 28.8061 12.3975 28.7643C10.1768 28.7077 9.72911 25.5937 11.8438 24.9138C13.4085 24.4108 13.7081 22.3272 12.3485 21.4037C10.511 20.1555 11.8179 17.2938 13.9645 17.8652C15.5528 18.2879 16.9313 16.6971 16.2868 15.1851C15.4158 13.1417 18.0624 11.4408 19.5593 13.082C20.6669 14.2963 22.6867 13.7033 22.9619 12.0829Z" fill="#949494"/>
<path d="M25.2734 24.8594H22.375L22.3594 23.4297H24.8906C25.3177 23.4297 25.6797 23.3672 25.9766 23.2422C26.2786 23.112 26.5078 22.9271 26.6641 22.6875C26.8203 22.4427 26.8984 22.1484 26.8984 21.8047C26.8984 21.4245 26.8255 21.1146 26.6797 20.875C26.5339 20.6354 26.3099 20.4609 26.0078 20.3516C25.7109 20.2422 25.3307 20.1875 24.8672 20.1875H22.9688V30H21.0078V18.625H24.8672C25.4922 18.625 26.0495 18.6849 26.5391 18.8047C27.0339 18.9245 27.4531 19.112 27.7969 19.3672C28.1458 19.6172 28.4089 19.9349 28.5859 20.3203C28.7682 20.7057 28.8594 21.1641 28.8594 21.6953C28.8594 22.1641 28.7474 22.5938 28.5234 22.9844C28.2995 23.3698 27.9688 23.6849 27.5312 23.9297C27.0938 24.1745 26.5495 24.3203 25.8984 24.3672L25.2734 24.8594ZM25.1875 30H21.7578L22.6406 28.4453H25.1875C25.6302 28.4453 26 28.3724 26.2969 28.2266C26.5938 28.0755 26.8151 27.8698 26.9609 27.6094C27.112 27.3438 27.1875 27.0339 27.1875 26.6797C27.1875 26.3099 27.1224 25.9896 26.9922 25.7188C26.862 25.4427 26.6562 25.2318 26.375 25.0859C26.0938 24.9349 25.7266 24.8594 25.2734 24.8594H23.0703L23.0859 23.4297H25.9531L26.3984 23.9688C27.0234 23.9896 27.5365 24.1276 27.9375 24.3828C28.3438 24.638 28.6458 24.9688 28.8438 25.375C29.0417 25.7812 29.1406 26.2188 29.1406 26.6875C29.1406 27.4115 28.9818 28.0182 28.6641 28.5078C28.3516 28.9974 27.901 29.3698 27.3125 29.625C26.724 29.875 26.0156 30 25.1875 30Z" fill="white"/>
</svg>
