<svg width="49" height="50" viewBox="0 0 49 50" fill="none" xmlns="http://www.w3.org/2000/svg">
<path d="M22.6338 12.0829C23.0058 9.89295 26.1518 9.89295 26.5238 12.0829C26.799 13.7033 28.8188 14.2963 29.9264 13.082C31.4233 11.4408 34.0699 13.1417 33.1989 15.1851C32.5544 16.6971 33.9329 18.2879 35.5212 17.8652C37.6678 17.2938 38.9747 20.1555 37.1372 21.4037C35.7776 22.3272 36.0772 24.4108 37.6419 24.9138C39.7566 25.5937 39.3089 28.7077 37.0882 28.7643C35.4452 28.8061 34.5707 30.7209 35.6151 31.9901C37.0265 33.7053 34.9663 36.0829 33.0677 34.9299C31.6628 34.0768 29.8919 35.2149 30.0844 36.8472C30.3444 39.0532 27.3258 39.9396 26.3519 37.9431C25.6313 36.4659 23.5263 36.4659 22.8057 37.9431C21.8317 39.9396 18.8132 39.0532 19.0732 36.8472C19.2656 35.2149 17.4947 34.0768 16.0899 34.9299C14.1912 36.0829 12.131 33.7053 13.5425 31.9901C14.5868 30.7209 13.7124 28.8061 12.0693 28.7643C9.84871 28.7077 9.40099 25.5937 11.5157 24.9138C13.0804 24.4108 13.38 22.3272 12.0204 21.4037C10.1829 20.1555 11.4898 17.2938 13.6364 17.8652C15.2246 18.2879 16.6032 16.6971 15.9587 15.1851C15.0877 13.1417 17.7342 11.4408 19.2312 13.082C20.3388 14.2963 22.3585 13.7033 22.6338 12.0829Z" fill="#949494"/>
<path d="M23.8125 30H21.3828L21.3984 28.4453H23.8125C24.5156 28.4453 25.1042 28.2917 25.5781 27.9844C26.0573 27.6771 26.4167 27.237 26.6562 26.6641C26.901 26.0911 27.0234 25.4089 27.0234 24.6172V24C27.0234 23.3854 26.9531 22.8411 26.8125 22.3672C26.6771 21.8932 26.474 21.4948 26.2031 21.1719C25.9375 20.849 25.6094 20.6042 25.2188 20.4375C24.8333 20.2708 24.388 20.1875 23.8828 20.1875H21.3359V18.625H23.8828C24.638 18.625 25.3281 18.7526 25.9531 19.0078C26.5781 19.2578 27.1172 19.6198 27.5703 20.0938C28.0286 20.5677 28.3802 21.1354 28.625 21.7969C28.8698 22.4583 28.9922 23.1979 28.9922 24.0156V24.6172C28.9922 25.4349 28.8698 26.1745 28.625 26.8359C28.3802 27.4974 28.0286 28.0651 27.5703 28.5391C27.112 29.0078 26.5651 29.3698 25.9297 29.625C25.2995 29.875 24.5938 30 23.8125 30ZM22.4688 18.625V30H20.5078V18.625H22.4688Z" fill="white"/>
</svg>
