<svg width="67" height="49" viewBox="0 0 67 49" fill="none" xmlns="http://www.w3.org/2000/svg">
<circle cx="35.6918" cy="24.3198" r="24.3198" fill="#F5D145"/>
<circle cx="35.6915" cy="24.3194" r="19.3311" fill="#FFDF4E"/>
<path d="M16.1622 10.0739C13.4619 8.82429 8.16714 7.07487 8.58979 10.0739C9.10664 13.7414 37.9402 39.236 58.6478 40.1931C59.4052 40.2281 59.9779 39.5921 59.637 38.9147C58.9411 37.5317 57.4675 36.0535 56.8937 35.388" stroke="#826E2C" stroke-width="2.1825"/>
<path d="M20.1016 7.0154C16.7747 5.61748 8.74562 3.35745 3.06165 4.35153C-3.98654 5.5842 24.9338 49.6412 63.8645 44.2545C64.4281 44.1765 64.898 43.7486 64.9556 43.1826C65.4868 37.9606 60.997 33.2931 58.548 31.5333" stroke="#997C5C" stroke-width="3.11786"/>
</svg>
