<svg width="44" height="24" viewBox="0 0 44 24" fill="none" xmlns="http://www.w3.org/2000/svg">
<path d="M31.626 0C38.4275 0 43.7363 5.2549 43.7313 11.9829C43.7313 18.6912 38.3731 24.0054 31.621 24.0054C24.8689 24.0054 19.5156 18.6912 19.5156 11.978C19.5156 5.24996 24.8244 0 31.626 0ZM38.383 12.0175C38.4077 8.04795 35.6496 5.21041 31.7199 5.16592C27.7259 5.12143 24.8738 7.93919 24.8689 11.9483C24.859 15.8932 27.6765 18.8049 31.532 18.8296C35.4963 18.8593 38.3583 16.0069 38.383 12.0126V12.0175Z" fill="#E3E5E9"/>
<path d="M0.267578 4.85448V0H16.2829C16.2829 1.50281 16.3076 3.01057 16.2532 4.51338C16.2483 4.70123 15.838 5.03738 15.6156 5.03738C10.5638 5.03738 5.50715 5.00772 0.455412 4.97806C0.420811 4.97806 0.38621 4.93357 0.267578 4.85448Z" fill="#E3E5E9"/>
<path d="M16.2087 9.03467V13.8447H0.267578V9.03467H16.2087Z" fill="#E3E5E9"/>
<path d="M16.3719 17.8418V22.7704H0.267578V17.8418H16.3669H16.3719Z" fill="#E3E5E9"/>
</svg>
