<svg width="1437" height="690" viewBox="0 0 1437 690" fill="none" xmlns="http://www.w3.org/2000/svg">
<g opacity="0.52">
<path d="M289.875 148.524C263.377 146.804 62.1913 168.54 1.38281 179.623V339.049L1433.6 354.22V148.524C1376.97 136.808 1257.07 108.397 1230.57 88.4732C1204.08 68.5492 1111.82 22.1865 1069.01 1.49561L1046.12 15.9076C1040.6 11.7778 1027.49 3.1138 1019.2 1.49561C1008.83 -0.527121 988.098 3.51835 957.125 15.9076C926.152 5.54106 841.07 73.9348 811.994 88.4732C788.732 100.104 749.794 109.923 733.233 113.378C726.364 118.898 706.811 130.774 683.55 134.111C660.288 137.449 608.962 165.843 586.206 179.623C579.969 173.428 560.871 161.039 534.373 161.039C507.875 161.039 494.34 173.428 490.884 179.623C459.111 169.257 391.821 148.524 376.853 148.524C358.143 148.524 322.998 150.673 289.875 148.524Z" fill="#000A1E" stroke="black"/>
<path d="M28.4333 177.484C17.5106 177.484 5.59329 185.66 1 189.747V454.346L1433.6 474.068V288.608C1338.79 290.125 1144.3 290.1 1124.88 277.863C1100.61 262.566 991.002 223.122 947.008 223.122C903.013 223.122 870.902 177.484 864.834 189.747C858.766 202.01 794.923 223.122 788.729 223.122H676.214L633.61 242.97C611.318 240.4 566.127 236.801 563.699 242.97C561.272 249.14 527.206 252.621 510.476 253.59C490.712 247.479 448.758 235.259 439.048 235.259C429.339 235.259 378.198 253.548 353.841 262.692C327.503 266.232 273.892 271.188 270.15 262.692C265.473 252.073 163.704 223.122 116.549 223.122C40.4433 198.723 42.0868 177.484 28.4333 177.484Z" fill="#161C29" stroke="black"/>
<path d="M442.715 382.791C418.846 362.665 368.716 352.998 346.635 350.681H1V689.489H1435.75V421.35C1329.68 416.04 1285.61 399.277 1269.13 382.791C1248.52 362.185 1168.37 350.681 1124.88 337.027C1104.65 346.231 1052.4 317.938 1028.8 302.641C1001.33 314.103 937.678 337.027 902.887 337.027C859.398 337.027 857.122 334.625 820.46 350.681C749.538 350.681 710.601 371.287 685.443 371.287C665.317 371.287 623.623 357.549 605.292 350.681C561.045 369.77 466.583 402.918 442.715 382.791Z" fill="#252B3B" stroke="black"/>
</g>
</svg>
