<svg width="298" height="297" viewBox="0 0 298 297" fill="none" xmlns="http://www.w3.org/2000/svg">
<path d="M146.125 5.30258C147.152 3.19342 150.157 3.19342 151.183 5.30259L174.471 53.1593C175.196 54.6496 177.046 55.1929 178.462 54.3312L223.926 26.6618C225.93 25.4424 228.458 27.0671 228.181 29.3964L221.899 82.2462C221.703 83.8921 222.966 85.3493 224.623 85.3899L277.829 86.6927C280.174 86.7501 281.422 89.4838 279.93 91.2935L246.072 132.357C245.017 133.636 245.292 135.544 246.664 136.474L290.719 166.336C292.661 167.652 292.233 170.626 289.999 171.342L239.316 187.582C237.737 188.088 236.936 189.842 237.588 191.366L258.505 240.305C259.427 242.462 257.459 244.733 255.193 244.127L203.775 230.388C202.174 229.96 200.552 231.002 200.276 232.636L191.414 285.116C191.024 287.428 188.14 288.275 186.561 286.541L150.734 247.183C149.618 245.958 147.69 245.958 146.574 247.183L110.747 286.541C109.168 288.275 106.285 287.428 105.894 285.116L97.0328 232.636C96.7568 231.002 95.1347 229.96 93.5335 230.388L42.1156 244.127C39.8495 244.733 37.8815 242.462 38.8034 240.305L59.7209 191.366C60.3723 189.842 59.5713 188.088 57.9929 187.582L7.30913 171.342C5.07537 170.626 4.64768 167.652 6.58931 166.336L50.6448 136.474C52.0167 135.544 52.2911 133.636 51.2367 132.357L17.3787 91.2935C15.8865 89.4838 17.135 86.7501 19.4799 86.6927L72.6859 85.3899C74.3428 85.3493 75.6056 83.8921 75.4099 82.2462L69.1274 29.3964C68.8505 27.0671 71.3787 25.4424 73.3824 26.6618L118.847 54.3312C120.262 55.1929 122.112 54.6496 122.838 53.1593L146.125 5.30258Z" fill="#F9F9F9"/>
<path d="M146.125 5.30258C147.152 3.19342 150.157 3.19342 151.183 5.30259L174.471 53.1593C175.196 54.6496 177.046 55.1929 178.462 54.3312L223.926 26.6618C225.93 25.4424 228.458 27.0671 228.181 29.3964L221.899 82.2462C221.703 83.8921 222.966 85.3493 224.623 85.3899L277.829 86.6927C280.174 86.7501 281.422 89.4838 279.93 91.2935L246.072 132.357C245.017 133.636 245.292 135.544 246.664 136.474L290.719 166.336C292.661 167.652 292.233 170.626 289.999 171.342L239.316 187.582C237.737 188.088 236.936 189.842 237.588 191.366L258.505 240.305C259.427 242.462 257.459 244.733 255.193 244.127L203.775 230.388C202.174 229.96 200.552 231.002 200.276 232.636L191.414 285.116C191.024 287.428 188.14 288.275 186.561 286.541L150.734 247.183C149.618 245.958 147.69 245.958 146.574 247.183L110.747 286.541C109.168 288.275 106.285 287.428 105.894 285.116L97.0328 232.636C96.7568 231.002 95.1347 229.96 93.5335 230.388L42.1156 244.127C39.8495 244.733 37.8815 242.462 38.8034 240.305L59.7209 191.366C60.3723 189.842 59.5713 188.088 57.9929 187.582L7.30913 171.342C5.07537 170.626 4.64768 167.652 6.58931 166.336L50.6448 136.474C52.0167 135.544 52.2911 133.636 51.2367 132.357L17.3787 91.2935C15.8865 89.4838 17.135 86.7501 19.4799 86.6927L72.6859 85.3899C74.3428 85.3493 75.6056 83.8921 75.4099 82.2462L69.1274 29.3964C68.8505 27.0671 71.3787 25.4424 73.3824 26.6618L118.847 54.3312C120.262 55.1929 122.112 54.6496 122.838 53.1593L146.125 5.30258Z" fill="#95BB88" fill-opacity="0.5"/>
<path d="M117.025 116.362L117.025 148.762L108.824 148.762L108.824 116.362L99.7111 116.362L99.7111 109.274L126.188 109.274L126.188 116.362L117.025 116.362ZM139.297 121.272C139.55 121.272 139.854 121.272 140.056 121.323L140.056 129.018L138.689 129.018C135.449 129.018 133.627 130.334 132.918 131.347L132.918 148.762L124.919 148.762L124.919 129.524L124.464 121.93L131.602 121.93L132.159 125.069C133.728 122.842 136.158 121.272 139.297 121.272ZM144.094 121.93L152.042 121.93L152.042 138.789C152.042 140.712 152.852 142.535 155.586 142.535C158.117 142.535 159.636 140.965 160.294 140.004L160.294 121.93L168.293 121.93L168.293 141.168L168.749 148.762L161.61 148.762L161.003 145.37C159.282 147.749 156.497 149.42 152.397 149.42C146.271 149.42 144.094 144.965 144.094 140.105L144.094 121.93ZM197.659 138.232L180.548 138.232C180.852 141.978 182.624 143.345 185.611 143.345C188.395 143.345 190.116 141.775 190.116 140.155L197.659 140.155L197.659 140.358C197.659 145.471 193.306 149.42 185.56 149.42C176.65 149.42 172.549 143.8 172.549 136.055L172.549 134.637C172.549 126.892 176.802 121.272 185.256 121.272C193.761 121.272 197.659 126.892 197.659 134.637L197.659 138.232ZM185.104 127.347C182.269 127.347 180.852 128.967 180.599 132.46L189.61 132.46C189.357 128.967 187.939 127.347 185.104 127.347Z" fill="#529A64"/>
<path d="M110.559 176.598C109.628 176.598 108.823 176.4 108.144 176.004C107.469 175.605 106.948 175.05 106.58 174.339C106.213 173.623 106.029 172.794 106.029 171.852C106.029 170.901 106.213 170.07 106.58 169.359C106.948 168.644 107.469 168.088 108.144 167.693C108.823 167.293 109.628 167.094 110.559 167.094C111.49 167.094 112.293 167.293 112.968 167.693C113.647 168.088 114.171 168.644 114.538 169.359C114.906 170.07 115.09 170.901 115.09 171.852C115.09 172.794 114.906 173.623 114.538 174.339C114.171 175.05 113.647 175.605 112.968 176.004C112.293 176.4 111.49 176.598 110.559 176.598ZM110.571 174.62C110.995 174.62 111.348 174.5 111.632 174.261C111.916 174.017 112.129 173.685 112.273 173.266C112.421 172.846 112.495 172.369 112.495 171.834C112.495 171.298 112.421 170.821 112.273 170.401C112.129 169.982 111.916 169.65 111.632 169.407C111.348 169.163 110.995 169.041 110.571 169.041C110.144 169.041 109.784 169.163 109.493 169.407C109.205 169.65 108.987 169.982 108.839 170.401C108.696 170.821 108.624 171.298 108.624 171.834C108.624 172.369 108.696 172.846 108.839 173.266C108.987 173.685 109.205 174.017 109.493 174.261C109.784 174.5 110.144 174.62 110.571 174.62ZM116.75 176.418L116.75 167.213L119.224 167.213L119.224 168.819L119.32 168.819C119.488 168.248 119.77 167.817 120.165 167.525C120.561 167.229 121.016 167.082 121.532 167.082C121.659 167.082 121.797 167.09 121.945 167.106C122.093 167.122 122.223 167.144 122.335 167.171L122.335 169.437C122.215 169.401 122.049 169.369 121.837 169.341C121.625 169.313 121.432 169.299 121.256 169.299C120.88 169.299 120.545 169.381 120.249 169.545C119.958 169.704 119.726 169.928 119.554 170.216C119.386 170.503 119.302 170.835 119.302 171.21L119.302 176.418L116.75 176.418ZM127.56 179.87L127.56 167.213L130.077 167.213L130.077 168.759L130.191 168.759C130.303 168.512 130.464 168.26 130.676 168.004C130.892 167.745 131.172 167.529 131.515 167.357C131.863 167.181 132.294 167.094 132.81 167.094C133.481 167.094 134.1 167.269 134.667 167.621C135.235 167.968 135.688 168.494 136.028 169.197C136.367 169.896 136.537 170.773 136.537 171.828C136.537 172.854 136.371 173.721 136.04 174.428C135.712 175.132 135.264 175.665 134.697 176.028C134.134 176.388 133.503 176.568 132.804 176.568C132.308 176.568 131.887 176.486 131.539 176.322C131.196 176.158 130.914 175.953 130.694 175.705C130.474 175.453 130.307 175.199 130.191 174.944L130.113 174.944L130.113 179.87L127.56 179.87ZM130.059 171.816C130.059 172.363 130.135 172.84 130.287 173.248C130.438 173.655 130.658 173.973 130.946 174.201C131.233 174.424 131.583 174.536 131.995 174.536C132.41 174.536 132.762 174.422 133.049 174.195C133.337 173.963 133.555 173.643 133.702 173.236C133.854 172.824 133.93 172.351 133.93 171.816C133.93 171.284 133.856 170.817 133.708 170.413C133.561 170.01 133.343 169.694 133.055 169.467C132.768 169.239 132.414 169.125 131.995 169.125C131.579 169.125 131.227 169.235 130.94 169.455C130.656 169.674 130.438 169.986 130.287 170.389C130.135 170.793 130.059 171.268 130.059 171.816ZM138.239 176.418L138.239 167.213L140.714 167.213L140.714 168.819L140.81 168.819C140.977 168.248 141.259 167.817 141.655 167.525C142.05 167.229 142.505 167.082 143.021 167.082C143.149 167.082 143.286 167.09 143.434 167.106C143.582 167.122 143.712 167.144 143.824 167.171L143.824 169.437C143.704 169.401 143.538 169.369 143.326 169.341C143.115 169.313 142.921 169.299 142.745 169.299C142.37 169.299 142.034 169.381 141.738 169.545C141.447 169.704 141.215 169.928 141.043 170.216C140.875 170.503 140.792 170.835 140.792 171.21L140.792 176.418L138.239 176.418ZM148.91 176.598C147.963 176.598 147.148 176.406 146.465 176.022C145.786 175.635 145.263 175.088 144.895 174.381C144.527 173.669 144.344 172.828 144.344 171.858C144.344 170.911 144.527 170.08 144.895 169.365C145.263 168.65 145.78 168.092 146.447 167.693C147.118 167.293 147.905 167.094 148.808 167.094C149.415 167.094 149.981 167.191 150.504 167.387C151.031 167.579 151.491 167.869 151.882 168.256C152.278 168.644 152.585 169.131 152.805 169.718C153.025 170.302 153.135 170.985 153.135 171.768L153.135 172.469L145.362 172.469L145.362 170.887L150.732 170.887C150.732 170.519 150.652 170.194 150.492 169.91C150.332 169.626 150.11 169.405 149.827 169.245C149.547 169.081 149.222 168.999 148.85 168.999C148.463 168.999 148.119 169.089 147.819 169.269C147.524 169.445 147.292 169.682 147.124 169.982C146.956 170.278 146.871 170.607 146.867 170.971L146.867 172.475C146.867 172.93 146.95 173.324 147.118 173.655C147.29 173.987 147.532 174.243 147.843 174.422C148.155 174.602 148.524 174.692 148.952 174.692C149.236 174.692 149.495 174.652 149.731 174.572C149.967 174.492 150.168 174.373 150.336 174.213C150.504 174.053 150.632 173.857 150.72 173.625L153.081 173.781C152.961 174.349 152.715 174.844 152.344 175.267C151.976 175.687 151.501 176.014 150.917 176.25C150.338 176.482 149.669 176.598 148.91 176.598ZM162.459 169.838L160.122 169.982C160.082 169.782 159.996 169.602 159.864 169.443C159.733 169.279 159.559 169.149 159.343 169.053C159.131 168.953 158.878 168.903 158.582 168.903C158.186 168.903 157.853 168.987 157.581 169.155C157.31 169.319 157.174 169.539 157.174 169.814C157.174 170.034 157.262 170.22 157.437 170.371C157.613 170.523 157.915 170.645 158.342 170.737L160.008 171.073C160.903 171.256 161.57 171.552 162.01 171.96C162.449 172.367 162.669 172.902 162.669 173.566C162.669 174.169 162.491 174.698 162.136 175.154C161.784 175.609 161.301 175.965 160.685 176.22C160.074 176.472 159.369 176.598 158.57 176.598C157.351 176.598 156.381 176.344 155.658 175.837C154.938 175.325 154.517 174.63 154.393 173.751L156.904 173.619C156.98 173.991 157.164 174.275 157.455 174.47C157.747 174.662 158.121 174.758 158.576 174.758C159.023 174.758 159.383 174.672 159.655 174.5C159.93 174.325 160.07 174.099 160.074 173.823C160.07 173.591 159.972 173.402 159.78 173.254C159.589 173.102 159.293 172.986 158.894 172.906L157.3 172.589C156.401 172.409 155.731 172.097 155.292 171.654C154.857 171.21 154.639 170.645 154.639 169.958C154.639 169.367 154.799 168.857 155.118 168.43C155.442 168.002 155.895 167.673 156.479 167.441C157.066 167.209 157.753 167.094 158.54 167.094C159.703 167.094 160.617 167.339 161.285 167.831C161.956 168.322 162.347 168.991 162.459 169.838ZM171.935 169.838L169.598 169.982C169.558 169.782 169.472 169.602 169.34 169.443C169.208 169.279 169.034 169.149 168.819 169.053C168.607 168.953 168.353 168.903 168.058 168.903C167.662 168.903 167.329 168.987 167.057 169.155C166.785 169.319 166.649 169.539 166.649 169.814C166.649 170.034 166.737 170.22 166.913 170.371C167.089 170.523 167.39 170.645 167.818 170.737L169.484 171.073C170.379 171.256 171.046 171.552 171.485 171.96C171.925 172.367 172.145 172.902 172.145 173.566C172.145 174.169 171.967 174.698 171.611 175.154C171.26 175.609 170.776 175.965 170.161 176.22C169.55 176.472 168.845 176.598 168.046 176.598C166.827 176.598 165.856 176.344 165.133 175.837C164.414 175.325 163.993 174.63 163.869 173.751L166.38 173.619C166.456 173.991 166.639 174.275 166.931 174.47C167.223 174.662 167.596 174.758 168.052 174.758C168.499 174.758 168.859 174.672 169.13 174.5C169.406 174.325 169.546 174.099 169.55 173.823C169.546 173.591 169.448 173.402 169.256 173.254C169.064 173.102 168.769 172.986 168.369 172.906L166.775 172.589C165.876 172.409 165.207 172.097 164.768 171.654C164.332 171.21 164.115 170.645 164.115 169.958C164.115 169.367 164.274 168.857 164.594 168.43C164.918 168.002 165.371 167.673 165.954 167.441C166.542 167.209 167.229 167.094 168.016 167.094C169.178 167.094 170.093 167.339 170.76 167.831C171.431 168.322 171.823 168.991 171.935 169.838ZM184.345 177.089L178.305 171.049L184.345 165.008L185.736 166.386L182.086 170.036L190.638 170.036L190.638 172.061L182.086 172.061L185.736 175.705L184.345 177.089Z" fill="#529A64"/>
</svg>
