<svg width="47" height="41" viewBox="0 0 47 41" fill="none" xmlns="http://www.w3.org/2000/svg">
<g clip-path="url(#clip0_4291_51980)">
<path d="M38.9464 7.94707C38.049 6.81614 37.18 5.66196 36.2466 4.56116C34.8561 2.92203 32.6414 2.78178 31.0602 4.24748C30.5921 4.68077 30.186 5.2366 29.914 5.8119C29.5078 6.66937 29.2353 7.59036 28.9266 8.49138C28.8304 8.77215 28.7382 8.93065 28.3866 8.85652C25.9486 8.34223 23.5509 8.74057 21.1962 9.36525C18.7505 10.013 16.5998 11.3426 14.4668 12.6558C12.968 13.5788 11.5858 14.6702 10.3295 15.9241C8.8067 17.4451 7.39639 19.0386 6.36586 20.9431C4.88739 23.6746 4.55747 26.5375 5.3379 29.5088C5.78377 31.2038 6.61538 32.6724 8.2192 33.5571C9.69703 34.3734 11.3234 34.7659 12.9838 34.9177C16.2593 35.2178 19.4102 34.502 22.4915 33.4473C24.4861 32.7644 26.2808 31.6554 28.0634 30.5615C30.2843 29.1995 32.2248 27.5079 33.5819 25.2366C34.2961 24.0411 35.0743 22.8771 35.6955 21.6363C36.1254 20.7789 36.3291 19.8102 36.6553 18.8993C36.6989 18.7767 36.854 18.6514 36.9837 18.6073C37.6868 18.3696 38.4394 18.2397 39.0988 17.9171C40.2456 17.3566 41.1896 16.5471 41.4784 15.2148C41.6452 14.4447 41.5594 13.6773 41.3238 12.9356C40.7604 11.1669 39.8055 9.593 38.9462 7.94505L38.9464 7.94707Z" fill="#F54C1D"/>
<path d="M38.9469 7.94675C39.8062 9.5947 40.7611 11.1686 41.3245 12.9373C41.5606 13.6798 41.6459 14.4464 41.4791 15.2165C41.1903 16.5488 40.2476 17.3586 39.0995 17.9188C38.4401 18.2414 37.6875 18.3713 36.9844 18.609C36.8547 18.6531 36.6996 18.7784 36.656 18.901C36.3298 19.812 36.1256 20.7798 35.6962 21.638C35.0743 22.8792 34.2961 24.0433 33.5826 25.2383C32.2255 27.5096 30.2845 29.2004 28.0641 30.5632C26.2815 31.6571 24.4868 32.7661 22.4922 33.449C19.4109 34.5037 16.26 35.2195 12.9845 34.9194C11.3236 34.7668 9.69772 34.3751 8.2199 33.5588C6.61686 32.6736 5.78398 31.2048 5.3386 29.5105C4.5574 26.5397 4.88809 23.6763 6.36656 20.9448C7.39708 19.0403 8.80663 17.4473 10.3302 15.9258C11.5863 14.6699 12.9677 13.579 14.4673 12.6555C16.6003 11.3423 18.751 10.0127 21.1975 9.36445C23.5526 8.74053 25.9504 8.34219 28.3879 8.85572C28.7382 8.92956 28.8312 8.77058 28.9279 8.49057C29.2366 7.58955 29.5091 6.66856 29.9152 5.8111C30.1878 5.23656 30.5939 4.68073 31.0615 4.24668C32.6427 2.78097 34.8579 2.922 36.2478 4.56036C37.1813 5.66115 38.0495 6.81582 38.9477 7.94626L38.9469 7.94675ZM37.6535 8.8005C36.8135 7.70087 35.9961 6.60302 35.1433 5.5328C34.9436 5.28192 34.6506 5.08 34.3607 4.93076C33.3761 4.42249 31.9692 4.98078 31.4329 6.13182C30.9217 7.22856 30.4917 8.36193 30.0174 9.47614C29.7087 10.2007 29.5191 10.3123 28.7198 10.2512C28.3133 10.2202 27.9069 10.1206 27.5022 10.1301C26.3835 10.1575 25.2519 10.132 24.1503 10.3016C22.868 10.4992 21.5492 10.7262 20.3603 11.218C18.021 12.186 15.8099 13.4178 13.7688 14.9544C12.1682 16.1596 10.7175 17.5037 9.45419 19.0465C7.84464 21.0123 6.58384 23.1386 6.4403 25.7613C6.36049 27.2168 6.53821 28.6259 7.08687 29.9718C7.44956 30.8624 7.94364 31.7015 8.80709 32.18C10.448 33.0895 12.2421 33.5071 14.1207 33.5174C15.8544 33.5269 17.5766 33.3158 19.244 32.8409C20.6985 32.4269 22.162 31.986 23.5369 31.3666C24.9147 30.7464 26.1914 29.8988 27.5047 29.1384C29.0736 28.2291 30.4108 27.0473 31.4969 25.5998C32.6535 24.0588 33.78 22.4887 34.4978 20.6867C34.781 19.9749 35.0345 19.2242 35.128 18.4713C35.2252 17.6829 35.4816 17.3175 36.2843 17.1851C36.923 17.0798 37.5769 16.9542 38.1712 16.7079C38.9291 16.3929 39.6632 15.9592 39.9518 15.1136C40.2278 14.308 40.0294 13.5141 39.6814 12.7874C39.0377 11.4446 38.3345 10.1306 37.6545 8.80203L37.6535 8.8005Z" fill="#FAB017"/>
<path d="M37.6535 8.79866C38.334 10.128 39.0372 11.442 39.6805 12.7841C40.0284 13.5107 40.2256 14.3044 39.9508 15.1103C39.6617 15.9551 38.9282 16.3895 38.1702 16.7045C37.5764 16.9516 36.922 17.0764 36.2833 17.1817C35.4806 17.3141 35.2243 17.6796 35.1271 18.4679C35.0335 19.2208 34.7809 19.9711 34.4968 20.6833C33.779 22.4853 32.6534 24.055 31.4959 25.5965C30.4106 27.0435 29.0734 28.2253 27.5038 29.1351C26.191 29.8962 24.9137 30.743 23.536 31.3632C22.1613 31.9814 20.6976 32.4236 19.243 32.8375C17.5752 33.3117 15.8535 33.5235 14.1198 33.514C12.2411 33.5037 10.4478 33.0857 8.80612 32.1767C7.94267 31.6982 7.44859 30.8591 7.0859 29.9684C6.53801 28.622 6.35952 27.2134 6.43933 25.758C6.58287 23.1352 7.84416 21.0097 9.45322 19.0431C10.7165 17.5003 12.1665 16.1567 13.7678 14.951C15.8089 13.4144 18.02 12.1826 20.3593 11.2147C21.5482 10.7228 22.867 10.4958 24.1493 10.2982C25.2505 10.1279 26.382 10.1534 27.5013 10.1267C27.906 10.1172 28.3116 10.2173 28.7188 10.2479C29.5182 10.309 29.7077 10.1973 30.0164 9.47278C30.4907 8.35857 30.9207 7.2252 31.4319 6.12846C31.9687 4.97818 33.3749 4.42037 34.3597 4.92739C34.6489 5.07712 34.9426 5.27856 35.1423 5.52943C35.9944 6.60014 36.8125 7.6975 37.6526 8.79713L37.6535 8.79866ZM17.0856 24.0551C17.0449 24.0743 17.0044 24.0923 16.9637 24.1115C16.9396 24.0732 16.914 24.0358 16.8914 23.9965C15.7574 21.9972 14.25 20.3504 12.2932 19.1186C11.8206 18.8211 11.3684 18.8818 11.1905 19.3241C11.035 19.7128 11.204 19.9884 11.4964 20.2323C12.1219 20.7524 12.8349 21.2025 13.3412 21.8211C14.388 23.0987 15.3802 24.43 16.2849 25.8109C16.9692 26.8565 17.4065 28.0372 17.5157 29.315C17.5328 29.5171 17.6134 29.7242 17.7102 29.9039C17.8865 30.2306 18.2293 30.3541 18.5214 30.1844C18.7378 30.059 18.9756 29.7223 18.9623 29.4954C18.9205 28.8083 18.8671 28.089 18.6262 27.4555C18.1851 26.2943 17.6065 25.1854 17.0849 24.0556L17.0856 24.0551ZM10.3153 27.5927C10.6457 28.2845 11.3302 28.2349 11.7724 27.9783C12.3241 27.6592 12.6073 26.8342 12.3351 26.3754C12.04 25.8786 11.2016 25.7212 10.6366 26.055C10.1096 26.3671 9.97098 27.0296 10.3148 27.592L10.3153 27.5927ZM33.9668 10.2309C33.6337 10.6937 33.2584 11.134 32.9904 11.6318C32.8989 11.8017 33.0023 12.2318 33.1568 12.3336C33.341 12.4552 33.752 12.4557 33.9282 12.3246C34.3106 12.0414 34.6423 11.6671 34.9235 11.2796C35.1178 11.0109 35.1758 10.6419 34.8973 10.3635C34.6497 10.1171 34.3451 10.0647 33.9668 10.2309ZM36.0366 14.2279C36.2443 14.032 36.5688 13.7767 36.8305 13.4678C37.1455 13.0944 37.0687 12.6432 36.699 12.3601C36.4302 12.1537 36.0552 12.2483 35.743 12.59C35.541 12.8122 35.337 13.0345 35.1174 13.2389C34.7626 13.5678 34.6831 13.9162 34.9134 14.2345C35.1233 14.5239 35.5423 14.5492 36.037 14.2286L36.0366 14.2279Z" fill="#F54C1D"/>
<path d="M17.0842 24.0558C17.6056 25.1868 18.1845 26.2944 18.6256 27.4556C18.8665 28.0891 18.9199 28.8084 18.9617 29.4955C18.9758 29.7219 18.7367 30.0583 18.5207 30.1845C18.2286 30.3542 17.8866 30.2302 17.7096 29.9041C17.6128 29.7243 17.5317 29.5165 17.5151 29.3152C17.4063 28.0381 16.9686 26.8567 16.2843 25.811C15.3796 24.4301 14.3874 23.0989 13.3406 21.8212C12.8343 21.2027 12.1208 20.7518 11.4957 20.2325C11.2026 19.989 11.0336 19.7134 11.1899 19.3242C11.3678 18.882 11.82 18.8212 12.2926 19.1187C14.2486 20.351 15.7568 21.9974 16.8908 23.9966C16.9133 24.0359 16.939 24.0733 16.9631 24.1116C17.0038 24.0924 17.0443 24.0745 17.085 24.0553L17.0842 24.0558Z" fill="black"/>
<path d="M10.3145 27.5927C9.97066 27.0303 10.11 26.3673 10.6363 26.0558C11.2016 25.7207 12.0404 25.8788 12.3347 26.3761C12.607 26.8349 12.3225 27.6597 11.7721 27.979C11.3298 28.2357 10.6453 28.2852 10.315 27.5935L10.3145 27.5927Z" fill="black"/>
<path d="M33.9675 10.2306C34.3466 10.064 34.6504 10.1168 34.898 10.3633C35.1773 10.6412 35.1193 11.0102 34.9243 11.2794C34.6435 11.6676 34.3113 12.0411 33.9289 12.3243C33.7527 12.4554 33.3417 12.455 33.1575 12.3334C33.003 12.2316 32.9001 11.8022 32.9911 11.6316C33.2583 11.1342 33.6344 10.6935 33.9675 10.2306Z" fill="black"/>
<path d="M36.0346 14.2288C35.5396 14.5507 35.1214 14.5248 34.911 14.2347C34.6807 13.9164 34.7602 13.568 35.115 13.2391C35.3351 13.0355 35.5386 12.8123 35.7406 12.5902C36.0524 12.2477 36.4278 12.1539 36.6966 12.3603C37.0656 12.6438 37.1435 13.0953 36.8281 13.4679C36.5677 13.7771 36.2424 14.0329 36.0341 14.228L36.0346 14.2288Z" fill="black"/>
</g>
<defs>
<clipPath id="clip0_4291_51980">
<rect width="40.3184" height="22.3991" fill="white" transform="translate(0 21.7478) rotate(-32.1563)"/>
</clipPath>
</defs>
</svg>
